<?xml version="1.0" encoding="UTF-8" standalone="no"?>
<svg
   width="1111.1156pt"
   height="561.3869pt"
   viewBox="0 0 1111.1156 561.38688"
   version="1.1"
   id="svg7"
   sodipodi:docname="boulangerieBG.svg"
   inkscape:version="1.3 (0e150ed6c4, 2023-07-21)"
   xmlns:inkscape="http://www.inkscape.org/namespaces/inkscape"
   xmlns:sodipodi="http://sodipodi.sourceforge.net/DTD/sodipodi-0.dtd"
   xmlns="http://www.w3.org/2000/svg"
   xmlns:svg="http://www.w3.org/2000/svg">
  <sodipodi:namedview
     id="namedview7"
     pagecolor="#ffffff"
     bordercolor="#000000"
     borderopacity="0.25"
     inkscape:showpageshadow="2"
     inkscape:pageopacity="0.0"
     inkscape:pagecheckerboard="0"
     inkscape:deskcolor="#d1d1d1"
     inkscape:document-units="pt"
     inkscape:zoom="0.24636637"
     inkscape:cx="740.7667"
     inkscape:cy="525.63993"
     inkscape:window-width="1366"
     inkscape:window-height="697"
     inkscape:window-x="-8"
     inkscape:window-y="329"
     inkscape:window-maximized="1"
     inkscape:current-layer="Agrupar50" />
  <defs
     id="defs7">
    <clipPath
       id="Clip0">
      <path
         d="M 0,0 H 1111.15 V 512.921 H 0 Z"
         id="path1" />
    </clipPath>
    <clipPath
       id="Clip1">
      <path
         d="M 0,0 H 1111.12 V 512.921 H 0 Z"
         id="path2" />
    </clipPath>
    <clipPath
       id="Clip2">
      <path
         d="M 0,0 H 1111.12 V 512.921 H 0 Z"
         id="path3" />
    </clipPath>
    <clipPath
       id="Clip3">
      <path
         d="M 0,0 H 1081.63 V 509.949 H 0 Z"
         id="path4" />
    </clipPath>
    <clipPath
       id="Clip4">
      <path
         d="M 0,0 H 470.646 V 55.7668 H 0 Z"
         id="path5" />
    </clipPath>
    <clipPath
       id="Clip5">
      <path
         d="M 0,0 H 44.2781 V 55.7668 H 0 Z"
         id="path6" />
    </clipPath>
    <clipPath
       id="Clip6">
      <path
         d="M 0,0 H 258.874 V 119.242 H 0 Z"
         id="path7" />
    </clipPath>
  </defs>
  <g
     inkscape:label="Fundo"
     id="Fundo"
     inkscape:groupmode="layer"
     transform="translate(-9.8289108e-7,48.465873)">
    <g
       id="Agrupar50"
       clip-rule="evenodd"
       clip-path="url(#Clip0)"
       style="fill:none;stroke:none">
      <g
         id="Agrupar49"
         clip-rule="evenodd"
         clip-path="url(#Clip1)"
         style="fill:none;stroke:none">
        <g
           id="Agrupar48"
           clip-rule="evenodd"
           clip-path="url(#Clip2)"
           style="fill:none;stroke:none">
          <g
             id="Agrupar47"
             clip-rule="evenodd"
             transform="translate(29.4856)"
             clip-path="url(#Clip3)"
             style="fill:none;stroke:none">
            <g
               id="u36c1"
               clip-rule="nonzero"
               transform="translate(38.9853,90.2649)"
               clip-path="url(#Clip4)"
               style="fill:none;stroke:none">
              <path
                 id="u36c2"
                 transform="translate(182.207)"
                 d="M 48.5178,55.7668 24.3307,0 0,55.7668 H 3.66037 L 10.6223,39.6899 h 27.3451 l 6.9618,16.0769 z M 36.6037,36.5319 H 11.9859 L 22.8952,11.2682 24.3307,7.67959 c 0.1435,0.57418 0.933,2.58381 1.4354,3.58861 z"
                 style="fill:#7f765a;fill-rule:nonzero;stroke:none" />
              <path
                 id="u36c3"
                 transform="translate(38.8505)"
                 d="M 56.479,28.1327 C 56.479,11.8228 44.0864,0 28.3463,0 12.4638,0 0,12.3926 0,27.919 c 0,15.4552 12.4638,27.8478 28.3463,27.8478 15.384,0 28.1327,-12.2502 28.1327,-27.6341 z m -3.5611,-0.0713 c 0,13.9595 -10.8257,24.5716 -25.0701,24.5716 -13.5322,0 -24.28671,-11.6804 -24.28671,-24.9989 0,-14.1019 10.96821,-24.42911 24.78521,-24.42911 13.461,0 24.5716,10.32721 24.5716,24.85641 z"
                 style="fill:#7f765a;fill-rule:nonzero;stroke:none" />
              <path
                 id="u36c4"
                 transform="translate(102.08)"
                 d="m 35.5604,47.9449 c -3.2591,3.3316 -9.5601,4.6352 -14.4125,4.6352 -11.73272,0 -17.67152,-4.9973 -17.67152,-18.3958 V 0 H 0 v 35.1258 c 0,13.7607 7.45971,20.641 19.4822,20.641 9.7773,0 16.3679,-3.0419 19.5545,-6.8079 V 0 h -3.4763 z"
                 style="fill:#7f765a;fill-rule:nonzero;stroke:none" />
              <path
                 id="u36c5"
                 transform="translate(147.868)"
                 d="M 27.5883,55.7668 V 52.2447 H 3.54075 V 0 H 0 v 55.7668 z"
                 style="fill:#7f765a;fill-rule:nonzero;stroke:none" />
              <path
                 id="u36c6"
                 transform="translate(288.499)"
                 d="M 48.8583,33.2091 C 47.7899,45.8154 38.2462,52.633 27.6341,52.633 13.3185,52.633 3.56109,40.3116 3.56109,28.1327 c 0,-14.102 9.54371,-24.92771 24.78521,-24.92771 10.3272,0 17.0933,6.55241 17.4494,6.97971 L 47.9324,7.69197 C 47.6475,7.33586 40.4541,0 28.2039,0 11.8228,0 0,12.4638 0,28.0614 c 0,15.0991 12.4638,27.7054 27.5629,27.7054 12.6063,0 24.6428,-8.527 24.7852,-25.6202 H 33.6167 v 3.0625 z"
                 style="fill:#7f765a;fill-rule:nonzero;stroke:none" />
              <path
                 id="u36c7"
                 transform="translate(428.677)"
                 d="M 3.54075,55.7668 V 0 H 0 v 55.7668 z"
                 style="fill:#7f765a;fill-rule:nonzero;stroke:none" />
              <path
                 id="u36c9"
                 transform="translate(347.598)"
                 d="M 31.6767,55.7668 V 52.6091 H 3.39994 V 23.663 H 18.9683 V 20.4319 H 3.39994 V 3.15768 H 31.6767 V 0 H 0 v 55.7668 z"
                 style="fill:#7f765a;fill-rule:nonzero;stroke:none" />
              <path
                 id="u36ca"
                 transform="translate(438.969)"
                 d="M 31.6767,55.7668 V 52.6091 H 3.39994 V 23.663 H 18.9683 V 20.4319 H 3.39994 V 3.15768 H 31.6767 V 0 H 0 v 55.7668 z"
                 style="fill:#7f765a;fill-rule:nonzero;stroke:none" />
              <path
                 id="u36cb"
                 transform="translate(386.026)"
                 d="M 31.346,15.9626 C 31.346,4.07276 21.4635,-2.64424 0,0.984486 V 55.7668 H 3.47431 V 32.9481 c 4.16917,0.6949 8.10669,0.3861 11.58099,0 L 31.346,55.7668 h 4.5552 L 18.7613,32.0217 C 26.482,29.4738 31.346,23.6061 31.346,15.9626 Z M 3.47431,3.68673 C 19.9966,0.984486 27.7945,6.775 27.7945,15.9626 c 0,9.4965 -9.1104,16.0591 -24.32019,13.7428 z"
                 style="fill:#7f765a;fill-rule:nonzero;stroke:none" />
              <path
                 id="u36cc"
                 d="m 0,55.0297 c 20.5907,2.3203 35.0349,-0.3093 35.0349,-15.5454 0,-7.8888 -5.0708,-12.6839 -11.2941,-13.9213 3.611,-2.0882 6.2233,-6.2646 6.2233,-11.3691 C 29.9641,-0.423453 14.7515,-1.19686 0,0.813999 Z M 3.53422,3.52092 C 12.8308,2.20613 26.5067,2.36081 26.5067,14.1166 c 0,5.7232 -4.2257,10.673 -10.0649,10.673 H 3.53422 Z m 0,24.13028 H 17.9016 c 7.5294,0 13.6759,3.9443 13.6759,11.9878 0,12.0651 -12.7539,13.9213 -28.04328,12.4518 z"
                 style="fill:#7f765a;fill-rule:nonzero;stroke:none" />
              <g
                 id="u36cd"
                 clip-rule="nonzero"
                 transform="translate(237.475)"
                 clip-path="url(#Clip5)"
                 style="fill:none;stroke:none">
                <path
                   id="u36ce"
                   d="M 40.7513,29.5878 0,0 V 55.7668 H 3.47398 V 6.63679 L 40.9196,33.7556"
                   style="fill:#7f765a;fill-rule:nonzero;stroke:none" />
                <path
                   id="u36cf"
                   transform="translate(40.7373)"
                   d="M 3.54075,55.7668 V 0 H 0 v 55.7668 z"
                   style="fill:#7f765a;fill-rule:nonzero;stroke:none" />
              </g>
            </g>
            <g
               id="u36d0"
               clip-rule="nonzero"
               clip-path="url(#Clip6)"
               style="fill:none;stroke:none">
              <path
                 id="u36d1"
                 transform="translate(84.7308,0.499009)"
                 d="M 40.4933,56.0913 V 0 H 7.13932 V 4.59149 H 35.8081 V 55.9793 c 0,11.6467 -5.5776,18.0299 -15.6172,18.0299 -6.6931,0 -12.94003,-3.4716 -17.62521,-9.8549 L 0,67.8499 c 5.13138,7.0552 12.1591,10.9748 20.1909,10.9748 12.94,0 20.3024,-8.0631 20.3024,-22.7334 z"
                 style="fill:#7f765a;fill-rule:nonzero;stroke:#7f765a;stroke-width:0.998019;stroke-linecap:butt;stroke-linejoin:miter;stroke-dasharray:none" />
              <path
                 id="u36d2"
                 transform="translate(204.711,0.598811)"
                 d="M 53.5645,78.6558 V 74.2081 H 8.50067 L 52.4379,0 H 7.27165 V 4.44765 H 43.9372 L 0,78.6558 Z"
                 style="fill:#7f765a;fill-rule:nonzero;stroke:#7f765a;stroke-width:1.19762;stroke-linecap:butt;stroke-linejoin:miter;stroke-dasharray:none" />
              <path
                 id="u36d3"
                 transform="translate(127.936,1.50116)"
                 d="M 67.7406,77.8617 33.9705,0 0,77.8617 H 5.11062 L 14.8308,55.4151 h 38.1793 l 9.7201,22.4466 z M 51.1061,51.0059 H 16.7348 l 15.2315,-35.2732 2.0042,-5.0104 c 0.2005,0.8016 1.3027,3.6074 2.0042,5.0104 z"
                 style="fill:#7f765a;fill-rule:nonzero;stroke:#7f765a;stroke-width:1.19762;stroke-linecap:butt;stroke-linejoin:miter;stroke-dasharray:none" />
              <path
                 id="u36d4"
                 transform="translate(0.598811,0.598811)"
                 d="m 27.5863,118.044 v -4.848 H 4.7599 V 0 H 0 v 118.044 z"
                 style="fill:#7f765a;fill-rule:nonzero;stroke:#7f765a;stroke-width:1.19762;stroke-linecap:butt;stroke-linejoin:miter;stroke-dasharray:none" />
              <path
                 id="u36d5"
                 transform="translate(16.4854,0.598811)"
                 d="M 44.5382,78.6567 V 74.2029 H 4.7804 V 33.3757 H 26.6699 V 28.8184 H 4.7804 V 4.45377 H 44.5382 V 0 H 0 v 78.6567 z"
                 style="fill:#7f765a;fill-rule:nonzero;stroke:#7f765a;stroke-width:1.19762;stroke-linecap:butt;stroke-linejoin:miter;stroke-dasharray:none" />
            </g>
            <path
               id="u36d7"
               transform="translate(266.483,0.598811)"
               d="M 61.9573,74.2081 H 8.56516 L 52.8357,0 H 7.32682 V 4.44765 H 44.2705 L 0,78.6558 814.552,79.2546 V 74.8069 L 61.9573,74.2081"
               style="fill:#7f765a;fill-rule:nonzero;stroke:#7f765a;stroke-width:1.19762;stroke-linecap:butt;stroke-linejoin:miter;stroke-dasharray:none" />
            <path
               id="u36e2"
               transform="rotate(90,502.3268,578.7032)"
               d="M 0,4.14729 433.10854,2.7346414 432.974,0 H 0.433957"
               style="fill:#7f765a;fill-rule:nonzero;stroke:#7f765a;stroke-width:1.19762;stroke-linecap:butt;stroke-linejoin:miter;stroke-dasharray:none"
               sodipodi:nodetypes="cccc" />
          </g>
          <path
             id="u36e0"
             transform="rotate(90,-35.064995,39.811105)"
             d="M 4.47218,4.14729 H 437.446 L 437.51735,0.6183626 0,0"
             style="fill:#7f765a;fill-rule:nonzero;stroke:#7f765a;stroke-width:1.19762;stroke-linecap:butt;stroke-linejoin:miter;stroke-dasharray:none"
             sodipodi:nodetypes="cccc" />
        </g>
        <path
           id="u36d6"
           transform="translate(0.598811,75.4749)"
           d="M 33.8669,0 H 0 v 4.14729 h 34.2167"
           style="fill:#7f765a;fill-rule:nonzero;stroke:#7f765a;stroke-width:1.19762;stroke-linecap:butt;stroke-linejoin:miter;stroke-dasharray:none" />
      </g>
      <path
         style="fill:#ff0000;stroke:#ff8080;stroke-width:3.02468"
         d="m 365.13159,-5.3019909 c 26.16225,-19.3798791 79.91743,-59.9102751 118.82173,-32.3614501 8.83418,6.255644 28.35506,30.6739004 42.65394,32.3614501 23.32049,2.7522734 53.77349,-0.3504144 76.16777,-4.3148606 6.23125,-1.1031155 11.94463,-3.5671305 18.28026,-4.3148595 13.3764,-1.578678 41.86548,-1.531342 54.84081,0 8.55895,1.010127 15.78387,5.6033456 24.37367,6.4722899 5.02681,0.5085112 10.17658,-0.3255408 15.23357,0 30.47382,1.961733 60.7064,2.1574302 91.40126,2.1574302"
         id="path8" />
    </g>
  </g>
</svg>
