<?xml version="1.0" encoding="UTF-8" standalone="no"?>
<svg
   width="11.0315pt"
   height="25.8092pt"
   viewBox="0 0 11.0315 25.8092"
   version="1.1"
   id="svg2"
   sodipodi:docname="spacerWT.svg"
   inkscape:version="1.3 (0e150ed6c4, 2023-07-21)"
   xmlns:inkscape="http://www.inkscape.org/namespaces/inkscape"
   xmlns:sodipodi="http://sodipodi.sourceforge.net/DTD/sodipodi-0.dtd"
   xmlns:xlink="http://www.w3.org/1999/xlink"
   xmlns="http://www.w3.org/2000/svg"
   xmlns:svg="http://www.w3.org/2000/svg">
  <sodipodi:namedview
     id="namedview2"
     pagecolor="#ffffff"
     bordercolor="#000000"
     borderopacity="0.25"
     inkscape:showpageshadow="2"
     inkscape:pageopacity="0.0"
     inkscape:pagecheckerboard="0"
     inkscape:deskcolor="#d1d1d1"
     inkscape:document-units="pt"
     inkscape:zoom="10.294599"
     inkscape:cx="5.1968999"
     inkscape:cy="20.059062"
     inkscape:window-width="1152"
     inkscape:window-height="793"
     inkscape:window-x="1358"
     inkscape:window-y="-8"
     inkscape:window-maximized="1"
     inkscape:current-layer="Fundo" />
  <defs
     id="defs1">
    <path
       id="GlQuattrocento81"
       d="M0.79 11.1 C0.843333 10.6533 0.876667 10.1617 0.89 9.625 C0.903333 9.08833 0.91 8.57333 0.91 8.08 L0.91 5 C0.91 4.83333 0.91 4.64167 0.91 4.425 C0.91 4.20833 0.905 3.98 0.895 3.74 C0.885 3.5 0.871667 3.26167 0.855 3.025 C0.838333 2.78833 0.816667 2.56667 0.79 2.36 L0.8 2.32 L1.56 2.32 L1.58 2.36 C1.54667 2.56667 1.52333 2.78833 1.51 3.025 C1.49667 3.26167 1.485 3.5 1.475 3.74 C1.465 3.98 1.46 4.20833 1.46 4.425 C1.46 4.64167 1.46 4.83333 1.46 5 L1.46 8.08 C1.46 8.57333 1.46667 9.08833 1.48 9.625 C1.49333 10.1617 1.52667 10.6533 1.58 11.1 L1.56 11.14 L0.8 11.14 L0.79 11.1 Z" />
  </defs>
  <g
     inkscape:label="Fundo"
     id="Fundo"
     inkscape:groupmode="layer">
    <g
       id="u34a5"
       transform="translate(0, 0)"
       style="fill:#ffffff">
      <use
         transform="matrix(2.4,0,0,2.4,2.6717499,-3.2473999)"
         xlink:href="#GlQuattrocento81"
         style="fill:#ffffff;stroke:none"
         id="use1" />
    </g>
  </g>
</svg>
