<?xml version="1.0" encoding="UTF-8" standalone="no"?>
<svg
   width="193.012pt"
   height="193.012pt"
   viewBox="0 0 193.012 193.012"
   version="1.1"
   id="svg5"
   sodipodi:docname="icon.svg"
   inkscape:version="1.3 (0e150ed6c4, 2023-07-21)"
   xmlns:inkscape="http://www.inkscape.org/namespaces/inkscape"
   xmlns:sodipodi="http://sodipodi.sourceforge.net/DTD/sodipodi-0.dtd"
   xmlns="http://www.w3.org/2000/svg"
   xmlns:svg="http://www.w3.org/2000/svg">
  <sodipodi:namedview
     id="namedview5"
     pagecolor="#ffffff"
     bordercolor="#000000"
     borderopacity="0.25"
     inkscape:showpageshadow="2"
     inkscape:pageopacity="0.0"
     inkscape:pagecheckerboard="0"
     inkscape:deskcolor="#d1d1d1"
     inkscape:document-units="pt"
     showgrid="false"
     showguides="true"
     inkscape:zoom="1.4183056"
     inkscape:cx="128.67466"
     inkscape:cy="128.67466"
     inkscape:window-width="1152"
     inkscape:window-height="793"
     inkscape:window-x="1358"
     inkscape:window-y="-8"
     inkscape:window-maximized="1"
     inkscape:current-layer="Fundo">
    <inkscape:grid
       id="grid5"
       units="pt"
       originx="0"
       originy="0"
       spacingx="0.99999999"
       spacingy="0.99999999"
       empcolor="#0099e5"
       empopacity="0.30196078"
       color="#0099e5"
       opacity="0.14901961"
       empspacing="5"
       dotted="false"
       gridanglex="30"
       gridanglez="30"
       visible="false" />
    <sodipodi:guide
       position="0,193.01199"
       orientation="0,257.34932"
       id="guide5"
       inkscape:locked="false" />
    <sodipodi:guide
       position="193.01199,193.01199"
       orientation="257.34932,0"
       id="guide6"
       inkscape:locked="false" />
    <sodipodi:guide
       position="193.01199,0"
       orientation="0,-257.34932"
       id="guide7"
       inkscape:locked="false" />
    <sodipodi:guide
       position="0,0"
       orientation="-257.34932,0"
       id="guide8"
       inkscape:locked="false" />
    <sodipodi:guide
       position="94.655196,95.712796"
       orientation="0,-1"
       id="guide9"
       inkscape:locked="false" />
  </sodipodi:namedview>
  <defs
     id="defs1">
    <clipPath
       id="Clip0">
      <path
         d="M0 0 L119.375 0 L119.375 14.0233 L0 14.0233 L0 0 Z"
         id="path1" />
    </clipPath>
  </defs>
  <g
     inkscape:label="Fundo"
     id="Fundo"
     inkscape:groupmode="layer">
    <path
       id="u258"
       d="M96.5058 193.012 C149.804 193.012 193.012 149.804 193.012 96.5058 C193.012 43.2071 149.804 0 96.5058 0 C43.2071 0 0 43.2071 0 96.5058 C0 149.804 43.2071 193.012 96.5058 193.012 Z"
       style="fill:#ab0d25; fill-rule:nonzero;stroke:none;"
       transform="translate(0, 0)" />
    <g
       id="u26e"
       transform="rotate(-37,94.953695,-49.719592)">
      <path
         d="M 0,2.50194 H 6.04746 L 5.87948,3.75291 C 4.87157,10.9176 4.70358,23.8822 4.70358,35.7095 c 0,7.2784 0.16799,16.3763 0.50396,21.039 l 0.33597,5.8 c 0.16798,1.7059 0.16798,3.1843 0.16798,4.2078 0,3.9804 -0.33597,5.0039 -3.02373,6.9372 -0.67194,0.3412 -0.83992,0.6823 -0.83992,1.0235 0,0.9098 0.83992,1.1373 3.3597,1.1373 h 22.50996 1.6799 c 4.1996,0 4.8715,-0.5687 4.8715,-4.2078 V 49.6976 h -3.6956 c -1.1759,20.3567 -2.6878,23.0861 -12.7669,23.0861 -0.5039,0 -1.0079,0 -1.5119,0 -1.0079,0 -2.3517,0 -4.3676,0 l 0.168,-1.251 c 0.168,-1.5921 0.504,-4.7764 0.672,-9.4391 l 0.5039,-11.4862 c 0.168,-2.6156 0.336,-6.596 0.336,-11.8273 0,-7.3921 -0.336,-13.647 -0.672,-19.6744 l -0.3359,-5.6862 v -0.4549 -0.3412 c 0,-2.1607 -0.168,-2.6156 -0.168,-3.18427 0,-0.11372 0,-0.11372 0,-0.22744 0,0 0,-0.11373 0,-0.22745 0,-0.34118 0,-0.79608 0,-1.3647 0,-0.11372 0,-0.22745 0,-0.34117 0.336,-2.50194 0.6719,-3.29801 3.0237,-5.00388 0.672,-0.4549 0.8399,-0.79607 0.8399,-1.13724 C 16.2945,0.227448 15.6226,0 13.1028,0 H 0 Z M 67.0239,60.3877 h -3.6956 c 0,1.0235 0,1.4784 0,2.0471 0,6.4823 -2.6878,10.4626 -7.3914,10.4626 -5.7115,0 -7.7273,-4.6627 -7.7273,-17.8547 0,-0.3412 0,-0.7961 0,-1.4784 h 12.2629 c 6.2155,0 7.0554,-0.6824 7.0554,-4.8902 0,-9.6666 -4.5356,-15.3528 -12.2629,-15.3528 -10.0791,0 -15.2867,7.7333 -15.2867,22.4037 0,13.9881 4.7036,20.6979 14.6147,20.6979 7.8953,0 12.5989,-4.8902 12.5989,-13.5332 0,-0.7961 -0.168,-1.251 -0.168,-2.502 z M 48.2096,51.2898 c 0.168,-10.0078 2.3518,-15.4666 6.5514,-15.4666 3.5277,0 5.2076,3.5255 5.2076,11.2588 0,3.4117 -0.84,4.2078 -4.0317,4.2078 h -1.8478 z"
         style="fill:#ffffff;fill-rule:nonzero"
         id="path2" />
      <path
         d="M 0,2.50194 H 6.04746 L 5.87948,3.75291 C 4.87157,10.9176 4.70358,23.8822 4.70358,35.7095 c 0,7.2784 0.16799,16.3763 0.50396,21.039 l 0.33597,5.8 c 0.16798,1.7059 0.16798,3.1843 0.16798,4.2078 0,3.9804 -0.33597,5.0039 -3.02373,6.9372 -0.67194,0.3412 -0.83992,0.6823 -0.83992,1.0235 0,0.9098 0.83992,1.1373 3.3597,1.1373 h 22.50996 1.6799 c 4.1996,0 4.8715,-0.5687 4.8715,-4.2078 V 49.6976 h -3.6956 c -1.1759,20.3567 -2.6878,23.0861 -12.7669,23.0861 -0.5039,0 -1.0079,0 -1.5119,0 -1.0079,0 -2.3517,0 -4.3676,0 l 0.168,-1.251 c 0.168,-1.5921 0.504,-4.7764 0.672,-9.4391 l 0.5039,-11.4862 c 0.168,-2.6156 0.336,-6.596 0.336,-11.8273 0,-7.3921 -0.336,-13.647 -0.672,-19.6744 l -0.3359,-5.6862 v -0.4549 -0.3412 c 0,-2.1607 -0.168,-2.6156 -0.168,-3.18427 0,-0.11372 0,-0.11372 0,-0.22744 0,0 0,-0.11373 0,-0.22745 0,-0.34118 0,-0.79608 0,-1.3647 0,-0.11372 0,-0.22745 0,-0.34117 0.336,-2.50194 0.6719,-3.29801 3.0237,-5.00388 0.672,-0.4549 0.8399,-0.79607 0.8399,-1.13724 C 16.2945,0.227448 15.6226,0 13.1028,0 H 0 Z M 67.0239,60.3877 h -3.6956 c 0,1.0235 0,1.4784 0,2.0471 0,6.4823 -2.6878,10.4626 -7.3914,10.4626 -5.7115,0 -7.7273,-4.6627 -7.7273,-17.8547 0,-0.3412 0,-0.7961 0,-1.4784 h 12.2629 c 6.2155,0 7.0554,-0.6824 7.0554,-4.8902 0,-9.6666 -4.5356,-15.3528 -12.2629,-15.3528 -10.0791,0 -15.2867,7.7333 -15.2867,22.4037 0,13.9881 4.7036,20.6979 14.6147,20.6979 7.8953,0 12.5989,-4.8902 12.5989,-13.5332 0,-0.7961 -0.168,-1.251 -0.168,-2.502 z M 48.2096,51.2898 c 0.168,-10.0078 2.3518,-15.4666 6.5514,-15.4666 3.5277,0 5.2076,3.5255 5.2076,11.2588 0,3.4117 -0.84,4.2078 -4.0317,4.2078 h -1.8478 z"
         style="fill:none;stroke:none"
         id="path3" />
    </g>
    <g
       id="u284"
       transform="translate(36.2125,70.9348)">
      <path
         d="m 16.6305,56.7485 c 0,0.7961 0,1.251 0,1.5922 l 0.336,4.7764 c 0,0.4549 0,1.0235 0,1.4784 0,6.1412 -1.5119,8.6431 -5.0396,8.6431 -4.36758,0 -6.88735,-6.2549 -8.56721,-22.29 0,-0.3412 -0.16797,-0.7961 -0.16797,-1.251 H 0 v 26.7253 h 3.69567 v -3.0706 c 2.85574,2.2745 5.37552,3.0706 8.90323,3.0706 3.6956,0 6.5514,-1.1373 8.5672,-3.5255 3.1917,-3.6392 3.6957,-4.7764 3.6957,-24.6782 v -9.4391 c 0,-0.5687 0,-1.0236 0,-1.4785 0,-1.8195 -0.168,-4.7764 -0.168,-8.643 -0.168,-4.3216 -0.168,-7.5058 -0.336,-9.5529 l -0.3359,-5.6862 c -0.168,-1.8196 -0.168,-3.298 -0.168,-4.32154 0,-3.98036 0.3359,-4.89015 3.0237,-6.82347 0.6719,-0.4549 0.8399,-0.79607 0.8399,-1.13724 C 27.7175,0.227448 27.0456,0 24.3578,0 H 11.423 v 2.50194 h 5.8795 v 1.25097 c 0,7.27839 -1.1759,20.12929 -1.1759,32.29779 0,7.2783 0,11.0313 0.5039,20.6978 z M 32.9009,33.3213 v 13.8744 h 2.6878 c 2.1838,-8.0745 5.0395,-11.3725 9.2392,-11.3725 3.3597,0 4.0316,1.1373 4.0316,6.4823 v 8.7568 C 47.5156,50.6074 46.1717,50.38 44.1559,50.38 c -8.5672,0 -14.1107,5.2313 -14.1107,13.3057 0,7.7333 4.7036,12.5097 12.2629,12.5097 2.8557,0 5.0395,-0.9098 6.5514,-2.5019 0,0.1137 0,0.2274 0,0.3412 0,1.5921 0.504,1.8196 4.0316,1.8196 h 8.0633 v -2.2745 h -5.8795 l 0.168,-1.251 c 0.84,-6.8235 1.008,-12.0548 1.008,-18.7645 0,-18.3097 -1.008,-20.243 -10.9191,-20.243 -3.5277,0 -6.2154,0.5686 -9.2392,2.1608 v -2.1608 z m 15.9586,20.243 v 12.0548 c 0,5.6862 -0.8399,7.1646 -4.3676,7.1646 -3.8637,0 -5.8795,-3.1843 -5.8795,-9.5529 0,-6.7097 2.3518,-10.3489 6.7194,-10.3489 1.1759,0 2.1838,0.2275 3.5277,0.6824 z m 40.6508,6.8234 h -2.6878 c -0.336,10.349 -2.8557,13.1921 -12.0949,13.1921 h -3.3597 l 0.6719,-1.251 c 3.5277,-6.596 6.2155,-10.3489 8.5673,-15.0116 l 4.3676,-8.6431 c 1.5118,-2.9568 2.5197,-5.0039 3.0237,-6.1411 l 1.3439,-2.9569 c 1.0079,-2.2745 1.3439,-2.8431 1.3439,-3.7529 0,-1.3647 -1.0079,-1.9333 -3.8637,-1.9333 -0.168,0 -0.336,0 -0.504,0 H 83.9668 66.4963 v 13.3058 h 2.6878 c 0.168,-9.098 2.0158,-10.9176 11.255,-10.9176 h 3.5277 c -0.336,0.5686 -0.672,0.9098 -0.84,1.251 -0.6719,1.1372 -2.1838,3.6392 -4.1996,7.2784 l -5.2075,9.4391 c -2.1838,3.9804 -5.8795,11.5999 -8.0633,16.2626 -0.8399,1.8196 -1.0079,2.6157 -1.0079,3.298 0,1.5922 0.8399,2.0471 4.5356,2.0471 h 20.3262 z m 29.9007,0 h -2.688 c -0.336,10.349 -2.856,13.1921 -12.095,13.1921 h -3.36 l 0.672,-1.251 c 3.528,-6.596 6.216,-10.3489 8.567,-15.0116 l 4.368,-8.6431 c 1.512,-2.9568 2.52,-5.0039 3.024,-6.1411 l 1.344,-2.9569 c 1.007,-2.2745 1.343,-2.8431 1.343,-3.7529 0,-1.3647 -1.007,-1.9333 -3.863,-1.9333 -0.168,0 -0.336,0 -0.504,0 h -2.352 -17.4704 v 13.3058 h 2.6878 c 0.168,-9.098 2.0156,-10.9176 11.2546,-10.9176 h 3.528 c -0.336,0.5686 -0.672,0.9098 -0.84,1.251 -0.672,1.1372 -2.184,3.6392 -4.199,7.2784 l -5.208,9.4391 c -2.184,3.9804 -5.8795,11.5999 -8.0633,16.2626 -0.8399,1.8196 -1.0079,2.6157 -1.0079,3.298 0,1.5922 0.8399,2.0471 4.5356,2.0471 h 20.3266 z"
         style="fill:#ffffff;fill-rule:nonzero"
         id="path4" />
      <path
         d="m 16.6305,56.7485 c 0,0.7961 0,1.251 0,1.5922 l 0.336,4.7764 c 0,0.4549 0,1.0235 0,1.4784 0,6.1412 -1.5119,8.6431 -5.0396,8.6431 -4.36758,0 -6.88735,-6.2549 -8.56721,-22.29 0,-0.3412 -0.16797,-0.7961 -0.16797,-1.251 H 0 v 26.7253 h 3.69567 v -3.0706 c 2.85574,2.2745 5.37552,3.0706 8.90323,3.0706 3.6956,0 6.5514,-1.1373 8.5672,-3.5255 3.1917,-3.6392 3.6957,-4.7764 3.6957,-24.6782 v -9.4391 c 0,-0.5687 0,-1.0236 0,-1.4785 0,-1.8195 -0.168,-4.7764 -0.168,-8.643 -0.168,-4.3216 -0.168,-7.5058 -0.336,-9.5529 l -0.3359,-5.6862 c -0.168,-1.8196 -0.168,-3.298 -0.168,-4.32154 0,-3.98036 0.3359,-4.89015 3.0237,-6.82347 0.6719,-0.4549 0.8399,-0.79607 0.8399,-1.13724 C 27.7175,0.227448 27.0456,0 24.3578,0 H 11.423 v 2.50194 h 5.8795 v 1.25097 c 0,7.27839 -1.1759,20.12929 -1.1759,32.29779 0,7.2783 0,11.0313 0.5039,20.6978 z M 32.9009,33.3213 v 13.8744 h 2.6878 c 2.1838,-8.0745 5.0395,-11.3725 9.2392,-11.3725 3.3597,0 4.0316,1.1373 4.0316,6.4823 v 8.7568 C 47.5156,50.6074 46.1717,50.38 44.1559,50.38 c -8.5672,0 -14.1107,5.2313 -14.1107,13.3057 0,7.7333 4.7036,12.5097 12.2629,12.5097 2.8557,0 5.0395,-0.9098 6.5514,-2.5019 0,0.1137 0,0.2274 0,0.3412 0,1.5921 0.504,1.8196 4.0316,1.8196 h 8.0633 v -2.2745 h -5.8795 l 0.168,-1.251 c 0.84,-6.8235 1.008,-12.0548 1.008,-18.7645 0,-18.3097 -1.008,-20.243 -10.9191,-20.243 -3.5277,0 -6.2154,0.5686 -9.2392,2.1608 v -2.1608 z m 15.9586,20.243 v 12.0548 c 0,5.6862 -0.8399,7.1646 -4.3676,7.1646 -3.8637,0 -5.8795,-3.1843 -5.8795,-9.5529 0,-6.7097 2.3518,-10.3489 6.7194,-10.3489 1.1759,0 2.1838,0.2275 3.5277,0.6824 z m 40.6508,6.8234 h -2.6878 c -0.336,10.349 -2.8557,13.1921 -12.0949,13.1921 h -3.3597 l 0.6719,-1.251 c 3.5277,-6.596 6.2155,-10.3489 8.5673,-15.0116 l 4.3676,-8.6431 c 1.5118,-2.9568 2.5197,-5.0039 3.0237,-6.1411 l 1.3439,-2.9569 c 1.0079,-2.2745 1.3439,-2.8431 1.3439,-3.7529 0,-1.3647 -1.0079,-1.9333 -3.8637,-1.9333 -0.168,0 -0.336,0 -0.504,0 H 83.9668 66.4963 v 13.3058 h 2.6878 c 0.168,-9.098 2.0158,-10.9176 11.255,-10.9176 h 3.5277 c -0.336,0.5686 -0.672,0.9098 -0.84,1.251 -0.6719,1.1372 -2.1838,3.6392 -4.1996,7.2784 l -5.2075,9.4391 c -2.1838,3.9804 -5.8795,11.5999 -8.0633,16.2626 -0.8399,1.8196 -1.0079,2.6157 -1.0079,3.298 0,1.5922 0.8399,2.0471 4.5356,2.0471 h 20.3262 z m 29.9007,0 h -2.688 c -0.336,10.349 -2.856,13.1921 -12.095,13.1921 h -3.36 l 0.672,-1.251 c 3.528,-6.596 6.216,-10.3489 8.567,-15.0116 l 4.368,-8.6431 c 1.512,-2.9568 2.52,-5.0039 3.024,-6.1411 l 1.344,-2.9569 c 1.007,-2.2745 1.343,-2.8431 1.343,-3.7529 0,-1.3647 -1.007,-1.9333 -3.863,-1.9333 -0.168,0 -0.336,0 -0.504,0 h -2.352 -17.4704 v 13.3058 h 2.6878 c 0.168,-9.098 2.0156,-10.9176 11.2546,-10.9176 h 3.528 c -0.336,0.5686 -0.672,0.9098 -0.84,1.251 -0.672,1.1372 -2.184,3.6392 -4.199,7.2784 l -5.208,9.4391 c -2.184,3.9804 -5.8795,11.5999 -8.0633,16.2626 -0.8399,1.8196 -1.0079,2.6157 -1.0079,3.298 0,1.5922 0.8399,2.0471 4.5356,2.0471 h 20.3266 z"
         style="fill:none;stroke:none"
         id="path5" />
    </g>
  </g>
</svg>
