<?xml version="1.0" encoding="UTF-8"?>
<svg width="308.018pt" xmlns="http://www.w3.org/2000/svg" height="140.357pt" viewBox="0 0 308.018 140.357" xmlns:inkscape="http://www.inkscape.org/namespaces/inkscape" version="1.1" xmlns:xlink="http://www.w3.org/1999/xlink">
 <defs>
  <clipPath id="Clip0">
   <path d="M0 0 L308.018 0 L308.018 140.357 L0 140.357 L0 0 Z"/>
  </clipPath>
  <pattern width="308.018" height="140.357" id="Pattern_u2ea1">
   <g clip-rule="nonzero" transform="translate(0, 0) scale(1, 1)" id="u2ea1" style="fill:none; stroke:none" clip-path="url(#Clip0)">
    <path d="M10.1146 11.9041 C9.90692 12.3265 9.63286 12.6711 9.29212 12.9378 C8.95103 13.2046 8.55471 13.4085 8.10282 13.5492 C7.65058 13.6902 7.17645 13.7902 6.6801 13.8493 C6.1834 13.9087 5.67593 13.9382 5.15735 13.9382 C4.65335 13.9382 4.17923 13.9382 3.73463 13.9382 C3.11219 13.9236 2.48975 13.9382 1.86732 13.9826 C1.24488 14.0271 0.622439 14.0344 0 14.0049 L0.0222299 13.827 L2.08962 13.3824 C2.08962 11.3967 2.07468 9.41438 2.04516 7.43592 C2.01528 5.45745 2.02293 3.47551 2.06739 1.48941 L0.13338 1.02258 L0.11115 0.889198 C1.13373 0.919069 2.14137 0.911429 3.13442 0.866968 C4.12713 0.822508 5.13512 0.800279 6.1577 0.800279 C6.60229 0.800279 7.04689 0.85238 7.49149 0.955888 C7.93609 1.05974 8.33241 1.22647 8.68079 1.45606 C9.02883 1.686 9.31053 1.98229 9.52553 2.34526 C9.74019 2.70858 9.85516 3.14206 9.8701 3.64571 C9.88469 4.22369 9.78847 4.70546 9.58111 5.09066 C9.3734 5.47621 9.09934 5.79472 8.7586 6.04655 C8.41751 6.29872 8.02119 6.50608 7.5693 6.66898 C7.11706 6.83224 6.64675 6.96562 6.1577 7.06912 C6.66134 7.11358 7.16916 7.19139 7.68045 7.30254 C8.19174 7.41369 8.65092 7.59153 9.0587 7.83606 C9.46614 8.08059 9.79577 8.40292 10.0479 8.80306 C10.2998 9.2032 10.4258 9.71449 10.4258 10.3369 C10.4258 10.9594 10.322 11.4818 10.1146 11.9041 Z M7.82494 2.80097 C7.67663 2.48975 7.47274 2.22682 7.21362 2.01181 C6.95415 1.79715 6.65405 1.6339 6.31331 1.52275 C5.97221 1.4116 5.61654 1.35603 5.24627 1.35603 L3.95693 1.35603 C3.95693 2.28969 3.95311 3.21223 3.94582 4.12366 C3.93817 5.03508 3.9347 5.95763 3.9347 6.89128 C4.45328 6.89128 4.95728 6.85065 5.44634 6.76902 C5.9354 6.68774 6.37235 6.5356 6.7579 6.31331 C7.14311 6.09101 7.45433 5.78361 7.69156 5.39076 C7.92845 4.99827 8.04724 4.49045 8.04724 3.86801 C8.04724 3.46787 7.97291 3.11219 7.82494 2.80097 Z M8.10282 8.79194 C7.81383 8.39945 7.44321 8.10282 6.99132 7.90275 C6.53908 7.70268 6.04272 7.5693 5.50191 7.50261 C4.96075 7.43592 4.43835 7.40257 3.9347 7.40257 L3.9347 13.4269 C4.43835 13.4269 4.96075 13.3824 5.50191 13.2935 C6.04272 13.2046 6.53908 13.0417 6.99132 12.8045 C7.44321 12.5676 7.81383 12.2525 8.10282 11.8597 C8.39181 11.4672 8.5363 10.9594 8.5363 10.3369 C8.5363 9.6999 8.39181 9.18479 8.10282 8.79194 Z M30.1217 15.7833 C30.0178 15.9166 29.8883 16.024 29.7326 16.1056 C29.577 16.1869 29.4103 16.2463 29.2325 16.2834 C29.0546 16.3203 28.8914 16.339 28.7434 16.339 C28.0171 16.339 27.4614 16.2018 27.0762 15.9278 C26.6906 15.6534 26.4093 15.2942 26.2314 14.8496 C26.0536 14.405 25.9497 13.9014 25.9202 13.338 C25.8903 12.7749 25.8646 12.2042 25.8424 11.6263 C25.8202 11.0483 25.7719 10.4891 25.6979 9.9479 C25.6236 9.40709 25.4607 8.93644 25.2089 8.5363 C25.031 8.26954 24.8233 8.06218 24.5864 7.91386 C24.3492 7.76589 24.0897 7.65474 23.8084 7.58041 C23.5267 7.50643 23.2377 7.45815 22.9414 7.43592 C22.6448 7.41369 22.3558 7.39528 22.0744 7.38034 C22.0744 8.40292 22.0855 9.41438 22.1078 10.4147 C22.13 11.4151 22.1262 12.4265 22.0967 13.4491 L24.1863 13.827 L24.1863 13.9604 C22.1856 13.9159 20.1849 13.9159 18.1842 13.9604 L18.1842 13.827 L20.2293 13.3824 C20.2738 11.3967 20.2811 9.41438 20.2516 7.43592 C20.2217 5.45745 20.2071 3.47551 20.2071 1.48941 L18.362 1.08927 L18.362 0.911429 C19.3252 0.941299 20.2773 0.926364 21.2186 0.866968 C22.1595 0.807919 23.1043 0.778048 24.0529 0.778048 C24.542 0.778048 25.0199 0.83015 25.4867 0.933658 C25.9536 1.03751 26.3721 1.20806 26.7427 1.44495 C27.113 1.68218 27.4131 1.98958 27.643 2.36749 C27.8726 2.7454 27.9876 3.21605 27.9876 3.77909 C27.9876 4.34248 27.8688 4.8166 27.6319 5.20181 C27.3947 5.58736 27.0835 5.90587 26.6983 6.1577 C26.3127 6.40987 25.883 6.60994 25.4089 6.7579 C24.9345 6.90622 24.4676 7.01737 24.0084 7.09135 C24.4826 7.21014 24.9643 7.36923 25.4534 7.5693 C25.9424 7.76937 26.3572 8.06218 26.6983 8.44738 C27.1574 8.9809 27.4541 9.55888 27.5875 10.1813 C27.7208 10.8038 27.791 11.4189 27.7986 12.0264 C27.8059 12.6343 27.7986 13.2084 27.7764 13.7492 C27.7542 14.29 27.8243 14.7458 27.9876 15.1164 C28.0171 15.1903 28.0727 15.2866 28.1543 15.4054 C28.2356 15.5238 28.3283 15.6349 28.4322 15.7388 C28.5357 15.8423 28.6469 15.9128 28.7656 15.95 C28.8841 15.9868 28.9879 15.9535 29.0769 15.85 C29.1064 15.8201 29.1286 15.761 29.1436 15.6721 C29.1581 15.5832 29.1658 15.4866 29.1658 15.3831 C29.1658 15.2942 29.1658 15.1976 29.1658 15.0941 C29.1658 14.9903 29.1731 14.9087 29.188 14.8496 C29.2325 14.7162 29.3214 14.6162 29.4548 14.5495 C29.5882 14.4828 29.725 14.4641 29.866 14.4939 C30.0067 14.5235 30.1251 14.6051 30.2217 14.7385 C30.3179 14.8718 30.3513 15.0643 30.3217 15.3164 C30.2919 15.4943 30.2252 15.6499 30.1217 15.7833 Z M25.9202 2.78986 C25.7719 2.47135 25.568 2.20841 25.3089 2.0007 C25.0494 1.79333 24.7455 1.6339 24.3975 1.52275 C24.0491 1.4116 23.6823 1.35603 23.2971 1.35603 L22.03 1.35603 C22.0446 2.2751 22.0557 3.19 22.0633 4.10143 C22.0706 5.01285 22.0744 5.9281 22.0744 6.84682 L22.8747 6.82459 C23.8084 6.81001 24.5826 6.56895 25.1977 6.10212 C25.8125 5.63529 26.1276 4.89823 26.1425 3.89024 C26.1425 3.47551 26.0682 3.10872 25.9202 2.78986 Z M48.7281 13.9382 C47.8834 13.9236 47.031 13.9159 46.1717 13.9159 C45.3269 13.9159 44.4822 13.9309 43.6375 13.9604 L43.6375 13.827 L45.238 13.4491 L44.0154 9.71449 C43.8077 9.61098 43.5409 9.61098 43.2151 9.71449 C42.8889 9.81834 42.5405 9.95172 42.1703 10.1146 C41.7997 10.2779 41.4179 10.4408 41.0254 10.6037 C40.6326 10.7669 40.2658 10.8632 39.9251 10.8927 L39.1915 13.4491 L41.0143 13.827 L41.0143 13.9604 C39.6062 13.9159 38.1984 13.9159 36.7906 13.9604 L36.7906 13.827 L38.1911 13.4269 C38.354 12.9972 38.5169 12.5676 38.6802 12.1376 C38.8431 11.7079 38.9838 11.2706 39.1025 10.826 C38.5096 10.678 38.1651 10.4036 38.0689 10.0035 C37.9723 9.60334 38.065 9.16638 38.3467 8.69191 C38.1984 9.1959 38.2168 9.54047 38.4023 9.7256 C38.5874 9.91108 38.9171 9.98889 39.3915 9.95902 C39.8212 8.38833 40.2696 6.83571 40.7364 5.30184 C41.2033 3.76798 41.6291 2.20841 42.0147 0.622439 L42.8149 0.622439 C43.5409 2.78638 44.2856 4.92775 45.0491 7.04689 C45.8122 9.16638 46.5864 11.3005 47.3721 13.4491 L48.7281 13.827 L48.7281 13.9604 L48.7281 13.9382 Z M42.9483 6.59118 C42.6222 5.65023 42.3037 4.70546 41.9924 3.75686 C41.6958 4.73498 41.4033 5.7131 41.1144 6.69121 C40.8254 7.66933 40.5475 8.65509 40.2807 9.6478 C40.4141 9.58875 40.5732 9.51094 40.7587 9.41438 C40.9438 9.31817 41.1366 9.22925 41.3367 9.14762 C41.5367 9.06635 41.733 8.99583 41.9257 8.93644 C42.1182 8.87739 42.2887 8.84752 42.437 8.84752 C42.6739 8.84752 42.9445 8.89198 43.2484 8.9809 C43.552 9.06982 43.7781 9.21813 43.9264 9.4255 C43.6003 8.47725 43.2741 7.53248 42.9483 6.59118 Z M65.4895 10.0035 C65.4895 11.0115 65.2522 11.8374 64.7781 12.4821 C64.3036 13.1268 63.7073 13.5752 62.9886 13.827 C62.2696 14.0789 61.4881 14.1382 60.6433 14.0049 C59.7986 13.8715 59.0129 13.538 58.287 13.0045 L56.8198 14.8718 L56.7086 14.7829 C57.2123 13.9236 57.5013 13.075 57.5756 12.2376 C57.6496 11.4005 57.6124 10.5002 57.4645 9.53665 L57.6868 9.53665 C57.7903 10.4408 58.0275 11.1817 58.3981 11.7596 C58.7684 12.3376 59.2057 12.7676 59.7097 13.049 C60.2133 13.3307 60.7396 13.4825 61.288 13.5047 C61.8361 13.5269 62.3439 13.4345 62.8108 13.2268 C63.2776 13.0195 63.6628 12.7082 63.9667 12.2932 C64.2703 11.8784 64.4224 11.3744 64.4224 10.7815 C64.4224 10.2035 64.2519 9.75547 63.9111 9.43661 C63.5701 9.1181 63.1442 8.85863 62.6329 8.65856 C62.1216 8.4585 61.5659 8.28066 60.9657 8.12505 C60.3655 7.96944 59.8097 7.75478 59.2984 7.48038 C58.7871 7.20632 58.361 6.83953 58.0202 6.38 C57.6791 5.92081 57.5089 5.29073 57.5089 4.49045 C57.5089 3.57173 57.709 2.81973 58.1091 2.23411 C58.5093 1.64884 59.0167 1.23376 59.6319 0.989233 C60.2467 0.744704 60.9247 0.678013 61.6659 0.789163 C62.4068 0.900313 63.1182 1.19312 63.8 1.66725 L65.0449 0 L65.2227 0.0222298 C65.0299 0.526225 64.8743 0.959709 64.7559 1.32268 C64.6371 1.686 64.5447 2.03786 64.478 2.3786 C64.4113 2.7197 64.378 3.08267 64.378 3.46787 C64.378 3.85342 64.4002 4.32025 64.4447 4.86836 L64.2224 4.86836 C64.148 4.06808 63.9629 3.4123 63.6666 2.90101 C63.37 2.38972 63.0143 2.00834 62.5996 1.75617 C62.1845 1.50434 61.7472 1.37096 61.288 1.35603 C60.8285 1.34144 60.4061 1.42272 60.0209 1.60056 C59.6354 1.7784 59.313 2.04168 59.0539 2.38972 C58.7944 2.7381 58.6649 3.14936 58.6649 3.62348 C58.6649 4.2164 58.8316 4.66482 59.1651 4.96839 C59.4985 5.27232 59.9209 5.51685 60.4322 5.70198 C60.9434 5.88746 61.4916 6.05419 62.0772 6.20216 C62.6625 6.35047 63.2109 6.56166 63.7222 6.83571 C64.2335 7.11011 64.6559 7.49149 64.9893 7.98055 C65.3228 8.46961 65.4895 9.15144 65.4895 10.0257 L65.4895 10.0035 Z M83.0068 10.0035 C83.0068 11.0115 82.7695 11.8374 82.2954 12.4821 C81.8209 13.1268 81.2245 13.5752 80.5059 13.827 C79.7869 14.0789 79.0054 14.1382 78.1606 14.0049 C77.3159 13.8715 76.5302 13.538 75.8043 13.0045 L74.3371 14.8718 L74.2259 14.7829 C74.7296 13.9236 75.0186 13.075 75.0929 12.2376 C75.1669 11.4005 75.1297 10.5002 74.9817 9.53665 L75.204 9.53665 C75.3076 10.4408 75.5448 11.1817 75.9154 11.7596 C76.2857 12.3376 76.723 12.7676 77.227 13.049 C77.7306 13.3307 78.2568 13.4825 78.8053 13.5047 C79.3534 13.5269 79.8612 13.4345 80.3281 13.2268 C80.7949 13.0195 81.1801 12.7082 81.484 12.2932 C81.7876 11.8784 81.9397 11.3744 81.9397 10.7815 C81.9397 10.2035 81.7692 9.75547 81.4284 9.43661 C81.0873 9.1181 80.6615 8.85863 80.1502 8.65856 C79.6389 8.4585 79.0832 8.28066 78.483 8.12505 C77.8828 7.96944 77.327 7.75478 76.8157 7.48038 C76.3044 7.20632 75.8782 6.83953 75.5375 6.38 C75.1964 5.92081 75.0262 5.29073 75.0262 4.49045 C75.0262 3.57173 75.2263 2.81973 75.6264 2.23411 C76.0266 1.64884 76.534 1.23376 77.1492 0.989233 C77.764 0.744704 78.442 0.678013 79.1832 0.789163 C79.9241 0.900313 80.6354 1.19312 81.3173 1.66725 L82.5622 0 L82.74 0.0222298 C82.5472 0.526225 82.3916 0.959709 82.2732 1.32268 C82.1544 1.686 82.062 2.03786 81.9953 2.3786 C81.9286 2.7197 81.8953 3.08267 81.8953 3.46787 C81.8953 3.85342 81.9175 4.32025 81.9619 4.86836 L81.7397 4.86836 C81.6653 4.06808 81.4802 3.4123 81.1839 2.90101 C80.8873 2.38972 80.5316 2.00834 80.1169 1.75617 C79.7018 1.50434 79.2645 1.37096 78.8053 1.35603 C78.3458 1.34144 77.9234 1.42272 77.5382 1.60056 C77.1526 1.7784 76.8303 2.04168 76.5712 2.38972 C76.3117 2.7381 76.1822 3.14936 76.1822 3.62348 C76.1822 4.2164 76.3489 4.66482 76.6823 4.96839 C77.0158 5.27232 77.4382 5.51685 77.9494 5.70198 C78.4607 5.88746 79.0088 6.05419 79.5945 6.20216 C80.1797 6.35047 80.7282 6.56166 81.2395 6.83571 C81.7508 7.11011 82.1731 7.49149 82.5066 7.98055 C82.84 8.46961 83.0068 9.15144 83.0068 10.0257 L83.0068 10.0035 Z M102.547 11.9041 C102.502 12.6231 102.465 13.3456 102.436 14.0716 C101.131 14.0566 99.8271 14.0271 98.5232 13.9826 C97.2189 13.9382 95.9147 13.9159 94.6107 13.9159 C94.1661 13.9159 93.7139 13.9159 93.2547 13.9159 C92.8101 13.9159 92.3655 13.9309 91.9209 13.9604 L91.9209 13.8048 L94.0327 13.3602 C94.0918 9.38868 94.0918 5.40952 94.0327 1.42272 L92.1877 1.06704 L92.1877 0.911429 C93.8327 0.911429 95.4666 0.926364 97.0894 0.955888 C98.7122 0.98576 100.346 0.926364 101.991 0.778048 C101.932 1.3859 101.921 1.98958 101.958 2.58979 C101.995 3.19 102.028 3.79403 102.058 4.40153 L101.902 4.40153 C101.739 3.57173 101.465 2.95311 101.08 2.54533 C100.694 2.1379 100.235 1.8562 99.7014 1.70059 C99.1679 1.54498 98.5788 1.47482 97.9341 1.48941 C97.2894 1.50434 96.626 1.51164 95.9445 1.51164 L95.8778 6.78013 C96.337 6.78013 96.8188 6.78013 97.3228 6.78013 C97.8414 6.78013 98.312 6.71727 98.7344 6.59118 C99.1568 6.46544 99.4975 6.2355 99.757 5.90205 C100.016 5.5686 100.131 5.06113 100.102 4.3793 L100.257 4.3793 C100.213 5.28343 100.198 6.18375 100.213 7.08024 C100.227 7.97708 100.235 8.87739 100.235 9.78118 L100.079 9.78118 C99.9754 9.02536 99.816 8.47343 99.6014 8.12505 C99.3863 7.77701 99.1047 7.54359 98.7566 7.4248 C98.4082 7.30636 97.9932 7.25808 97.5117 7.28031 C97.03 7.30254 96.478 7.30636 95.8556 7.29142 L95.9668 13.3824 C96.7816 13.3974 97.5673 13.4123 98.3231 13.4269 C99.0789 13.4418 99.7531 13.3491 100.346 13.149 C100.939 12.9489 101.432 12.5898 101.824 12.0709 C102.217 11.5523 102.472 10.7742 102.591 9.73672 L102.747 9.73672 C102.658 10.463 102.591 11.1855 102.547 11.9041 Z M123.598 15.7833 C123.494 15.9166 123.365 16.024 123.209 16.1056 C123.054 16.1869 122.887 16.2463 122.709 16.2834 C122.531 16.3203 122.368 16.339 122.22 16.339 C121.494 16.339 120.938 16.2018 120.553 15.9278 C120.167 15.6534 119.886 15.2942 119.708 14.8496 C119.53 14.405 119.426 13.9014 119.397 13.338 C119.367 12.7749 119.341 12.2042 119.319 11.6263 C119.297 11.0483 119.249 10.4891 119.175 9.9479 C119.1 9.40709 118.937 8.93644 118.685 8.5363 C118.508 8.26954 118.3 8.06218 118.063 7.91386 C117.826 7.76589 117.566 7.65474 117.285 7.58041 C117.003 7.50643 116.714 7.45815 116.418 7.43592 C116.121 7.41369 115.832 7.39528 115.551 7.38034 C115.551 8.40292 115.562 9.41438 115.584 10.4147 C115.607 11.4151 115.603 12.4265 115.573 13.4491 L117.663 13.827 L117.663 13.9604 C115.662 13.9159 113.662 13.9159 111.661 13.9604 L111.661 13.827 L113.706 13.3824 C113.75 11.3967 113.758 9.41438 113.728 7.43592 C113.698 5.45745 113.684 3.47551 113.684 1.48941 L111.839 1.08927 L111.839 0.911429 C112.802 0.941299 113.754 0.926364 114.695 0.866968 C115.636 0.807919 116.581 0.778048 117.53 0.778048 C118.019 0.778048 118.497 0.83015 118.963 0.933658 C119.43 1.03751 119.849 1.20806 120.219 1.44495 C120.59 1.68218 120.89 1.98958 121.12 2.36749 C121.349 2.7454 121.464 3.21605 121.464 3.77909 C121.464 4.34248 121.345 4.8166 121.109 5.20181 C120.871 5.58736 120.56 5.90587 120.175 6.1577 C119.789 6.40987 119.36 6.60994 118.886 6.7579 C118.411 6.90622 117.944 7.01737 117.485 7.09135 C117.959 7.21014 118.441 7.36923 118.93 7.5693 C119.419 7.76937 119.834 8.06218 120.175 8.44738 C120.634 8.9809 120.931 9.55888 121.064 10.1813 C121.197 10.8038 121.268 11.4189 121.275 12.0264 C121.283 12.6343 121.275 13.2084 121.253 13.7492 C121.231 14.29 121.301 14.7458 121.464 15.1164 C121.494 15.1903 121.549 15.2866 121.631 15.4054 C121.712 15.5238 121.805 15.6349 121.909 15.7388 C122.012 15.8423 122.123 15.9128 122.242 15.95 C122.361 15.9868 122.465 15.9535 122.554 15.85 C122.583 15.8201 122.605 15.761 122.62 15.6721 C122.635 15.5832 122.642 15.4866 122.642 15.3831 C122.642 15.2942 122.642 15.1976 122.642 15.0941 C122.642 14.9903 122.65 14.9087 122.665 14.8496 C122.709 14.7162 122.798 14.6162 122.931 14.5495 C123.065 14.4828 123.202 14.4641 123.343 14.4939 C123.483 14.5235 123.602 14.6051 123.698 14.7385 C123.795 14.8718 123.828 15.0643 123.798 15.3164 C123.769 15.4943 123.702 15.6499 123.598 15.7833 Z M119.397 2.78986 C119.249 2.47135 119.045 2.20841 118.786 2.0007 C118.526 1.79333 118.222 1.6339 117.874 1.52275 C117.526 1.4116 117.159 1.35603 116.774 1.35603 L115.507 1.35603 C115.521 2.2751 115.532 3.19 115.54 4.10143 C115.547 5.01285 115.551 5.9281 115.551 6.84682 L116.351 6.82459 C117.285 6.81001 118.059 6.56895 118.674 6.10212 C119.289 5.63529 119.604 4.89823 119.619 3.89024 C119.619 3.47551 119.545 3.10872 119.397 2.78986 Z M134.013 13.9382 C132.998 13.9531 131.979 13.9604 130.956 13.9604 L130.956 13.827 L133.09 13.4491 C133.164 9.44773 133.164 5.43904 133.09 1.42272 L130.956 1.02258 L130.956 0.889198 C131.979 0.919069 132.998 0.930185 134.013 0.922543 C135.028 0.915248 136.047 0.911429 137.07 0.911429 L137.07 1.02258 L134.958 1.42272 C134.928 3.43835 134.913 5.44634 134.913 7.44703 C134.913 9.43314 134.928 11.4338 134.958 13.4491 L137.07 13.827 L137.07 13.9604 C136.047 13.9309 135.028 13.9236 134.013 13.9382 Z M156.254 11.9041 C156.21 12.6231 156.172 13.3456 156.143 14.0716 C154.839 14.0566 153.534 14.0271 152.23 13.9826 C150.926 13.9382 149.622 13.9159 148.318 13.9159 C147.873 13.9159 147.421 13.9159 146.962 13.9159 C146.517 13.9159 146.073 13.9309 145.628 13.9604 L145.628 13.8048 L147.74 13.3602 C147.799 9.38868 147.799 5.40952 147.74 1.42272 L145.895 1.06704 L145.895 0.911429 C147.54 0.911429 149.174 0.926364 150.797 0.955888 C152.419 0.98576 154.053 0.926364 155.698 0.778048 C155.639 1.3859 155.628 1.98958 155.665 2.58979 C155.702 3.19 155.735 3.79403 155.765 4.40153 L155.609 4.40153 C155.446 3.57173 155.172 2.95311 154.787 2.54533 C154.401 2.1379 153.942 1.8562 153.409 1.70059 C152.875 1.54498 152.286 1.47482 151.641 1.48941 C150.997 1.50434 150.333 1.51164 149.652 1.51164 L149.585 6.78013 C150.044 6.78013 150.526 6.78013 151.03 6.78013 C151.549 6.78013 152.019 6.71727 152.442 6.59118 C152.864 6.46544 153.205 6.2355 153.464 5.90205 C153.723 5.5686 153.838 5.06113 153.809 4.3793 L153.964 4.3793 C153.92 5.28343 153.905 6.18375 153.92 7.08024 C153.934 7.97708 153.942 8.87739 153.942 9.78118 L153.786 9.78118 C153.683 9.02536 153.523 8.47343 153.309 8.12505 C153.094 7.77701 152.812 7.54359 152.464 7.4248 C152.115 7.30636 151.7 7.25808 151.219 7.28031 C150.737 7.30254 150.185 7.30636 149.563 7.29142 L149.674 13.3824 C150.489 13.3974 151.274 13.4123 152.03 13.4269 C152.786 13.4418 153.46 13.3491 154.053 13.149 C154.646 12.9489 155.139 12.5898 155.532 12.0709 C155.924 11.5523 156.18 10.7742 156.298 9.73672 L156.454 9.73672 C156.365 10.463 156.298 11.1855 156.254 11.9041 Z" transform="translate(90.0144, 123.818)" style="fill:#171615; fill-rule:nonzero;stroke-width:0.399983; stroke-linecap:butt; stroke-linejoin:miter; stroke-dasharray:none; stroke:#171615;" id="u2ea2"/>
    <path d="M1.97587 72.3625 L7.55624 67.5866 L8.38917 68.8736 C13.1173 76.2809 23.2009 88.3768 32.5414 99.2906 C38.2894 106.007 45.6294 114.269 49.6217 118.307 L54.5121 123.393 C56.0143 124.835 57.1819 126.199 57.9902 127.143 C61.1336 130.816 61.6319 132.026 60.6786 135.933 C60.328 136.778 60.4424 137.226 60.7118 137.541 C61.4303 138.38 62.385 137.927 64.7102 135.937 L85.4815 118.16 L87.0317 116.833 C90.9069 113.517 91.0779 112.461 88.2039 109.103 L70.8701 88.8495 L67.4599 91.7681 C82.4512 111.481 83.2116 115.194 73.911 123.154 C73.446 123.552 72.9809 123.95 72.5159 124.347 C71.5858 125.143 70.3458 126.205 68.4856 127.797 L67.6527 126.51 C66.5504 124.908 64.3456 121.704 60.8183 117.269 L52.2123 106.272 C50.3016 103.726 47.3132 99.9201 43.1819 95.0928 C37.344 88.2717 32.0943 82.7653 27.0243 77.4687 L22.2236 72.487 L21.8644 72.0673 L21.5949 71.7524 C19.8885 69.7586 19.3742 69.4715 18.9252 68.9468 C18.8354 68.8418 18.8354 68.8418 18.7456 68.7369 C18.7456 68.7369 18.6557 68.6319 18.5659 68.527 C18.2965 68.2122 17.9373 67.7924 17.4882 67.2677 C17.3984 67.1628 17.3086 67.0578 17.2188 66.9529 C15.5529 64.3789 15.2342 63.3789 16.0572 59.9475 C16.318 58.9971 16.2036 58.5496 15.9341 58.2348 C15.2156 57.3953 14.416 57.7161 12.0908 59.706 L0 70.0538 L1.97587 72.3625 Z M117.036 81.5893 L112.935 83.4135 C113.44 84.5493 113.664 85.0541 113.945 85.6851 C117.145 92.8789 116.126 98.6227 110.907 100.944 C104.568 103.764 100.03 99.5841 93.5183 84.9443 C93.3499 84.5656 93.1254 84.0608 92.7886 83.3036 L106.397 77.2507 C113.295 74.1828 113.89 73.011 111.813 68.3414 C107.042 57.6139 99.2018 53.5424 90.6265 57.3565 C79.4412 62.3315 77.4793 73.4839 84.7205 89.7644 C91.625 105.288 100.157 110.412 111.155 105.52 C119.917 101.623 122.723 93.8745 118.457 84.2829 C118.064 83.3995 117.653 82.9776 117.036 81.5893 Z M91.6659 80.7795 C86.9126 69.5905 86.6416 62.4547 91.3022 60.3818 C95.217 58.6406 98.8214 61.7238 102.638 70.3057 C104.322 74.0919 103.783 75.3899 100.241 76.9653 L98.1907 77.8774 L91.6659 80.7795 Z M166.859 69.5425 C166.88 70.5098 166.893 71.0625 166.902 71.477 L167.437 77.2572 C167.449 77.8099 167.465 78.5008 167.477 79.0535 C167.642 86.515 165.875 89.6595 161.598 89.9034 C156.302 90.2055 153.078 82.78 150.611 63.4133 C150.602 62.9987 150.386 62.4577 150.374 61.9049 L146.504 62.1257 L147.22 94.5972 L151.702 94.3416 L151.62 90.6108 C155.143 93.1769 158.22 93.9699 162.498 93.7259 C166.979 93.4703 170.412 91.8911 172.792 88.8499 C176.565 84.2076 177.145 82.7909 176.612 58.61 L176.359 47.1414 C176.343 46.4505 176.331 45.8978 176.319 45.3451 C176.27 43.1342 175.987 39.5533 175.883 34.8553 C175.564 29.6162 175.479 25.7472 175.22 23.2717 L174.66 16.386 C174.408 14.1868 174.368 12.3905 174.341 11.147 C174.234 6.31078 174.617 5.18213 177.824 2.64724 C178.627 2.04806 178.821 1.62191 178.812 1.20739 C178.788 0.10197 177.967 -0.12792 174.708 0.0579595 L159.023 0.952503 L159.09 3.99238 L166.219 3.58577 L166.253 5.10573 C166.448 13.949 165.367 29.6443 165.693 44.4292 C165.888 53.2725 165.989 57.8323 166.859 69.5425 Z M193.019 42.1779 L189.744 58.708 L192.946 59.3424 C197.454 50.2379 201.635 46.9826 206.638 47.9738 C210.641 48.7668 211.173 50.2803 209.912 56.6485 L207.845 67.0815 C206.351 66.2223 204.804 65.6341 202.402 65.1583 C192.195 63.1362 184.355 68.0605 182.45 77.6805 C180.624 86.894 185.101 93.6949 194.107 95.4791 C197.51 96.1531 200.326 95.5846 202.503 94.0445 C202.476 94.18 202.449 94.3155 202.423 94.451 C202.047 96.3479 202.594 96.7379 206.796 97.5705 L216.403 99.4737 L216.94 96.7638 L209.935 95.3761 L210.431 93.9253 C213.042 85.994 214.477 79.801 216.06 71.8069 C220.382 49.9925 219.637 47.4512 207.829 45.1119 C203.626 44.2793 200.29 44.3224 196.312 45.5056 L196.822 42.9312 L193.019 42.1779 Z M207.254 70.0623 L204.409 84.4246 C203.067 91.1992 201.717 92.7624 197.514 91.9297 C192.911 91.0178 191.261 86.7482 192.764 79.1606 C194.348 71.1665 198.009 67.3858 203.212 68.4167 C204.613 68.6943 205.76 69.2031 207.254 70.0623 Z M255.531 98.0716 L252.616 96.6011 C246.59 107.639 242.302 109.344 232.284 104.289 L228.64 102.451 L230.054 101.462 C237.488 96.2393 242.455 93.6403 247.557 89.8709 L257.021 82.8883 C260.279 80.5092 262.491 78.8409 263.66 77.8834 L266.735 75.4124 C269.072 73.4975 269.748 73.0647 270.246 72.0781 C270.992 70.5983 270.21 69.4303 267.114 67.8679 C266.932 67.776 266.749 67.6841 266.567 67.5922 L264.017 66.3055 L245.073 56.7471 L237.793 71.1754 L240.708 72.6459 C245.867 62.8724 248.867 61.9102 258.885 66.9651 L262.71 68.8951 C262.035 69.3279 261.484 69.5141 261.115 69.7921 C259.764 70.6577 256.756 72.5435 252.579 75.3868 L241.768 82.7732 C237.222 85.8945 229.046 92.1349 224.127 95.9962 C222.221 97.5098 221.603 98.2811 221.23 99.021 C220.359 100.747 221.021 101.7 225.028 103.722 L247.069 114.843 L255.531 98.0716 Z M286.997 123.208 L284.517 121.086 C276.034 130.37 271.464 131.003 262.938 123.707 L259.838 121.054 L261.446 120.43 C269.91 117.129 275.354 115.789 281.206 113.344 L292.062 108.817 C295.793 107.283 298.339 106.19 299.703 105.539 L303.278 103.871 C306.004 102.569 306.763 102.309 307.482 101.47 C308.559 100.21 308.078 98.8897 305.443 96.6344 C305.288 96.5018 305.133 96.3691 304.978 96.2364 L302.808 94.3792 L286.687 80.5821 L276.179 92.8602 L278.659 94.9828 C285.999 86.7202 289.141 86.5005 297.667 93.797 L300.922 96.5829 C300.163 96.8423 299.583 96.8918 299.159 97.0739 C297.641 97.5927 294.27 98.7074 289.536 100.474 L277.276 105.071 C272.117 107.019 262.69 111.132 256.992 113.71 C254.78 114.725 253.997 115.327 253.458 115.957 C252.2 117.426 252.616 118.509 256.026 121.428 L274.783 137.48 L286.997 123.208 Z" transform="translate(0, 0)" style="fill:#ab0d25; fill-rule:nonzero;stroke:none;" id="u2ea3"/>
   </g>
  </pattern>
  <clipPath id="Clip1">
   <path d="M0 0 L308.018 0 L308.018 140.357 L0 140.357 L0 0 Z"/>
  </clipPath>
  <symbol id="SPattern_u2ea1" viewbox="0 0 140.357 308.018">
   <g clip-rule="nonzero" transform="translate(0, 0) scale(1, 1)" id="u2ea1" style="fill:none; stroke:none" clip-path="url(#Clip1)">
    <path d="M10.1146 11.9041 C9.90692 12.3265 9.63286 12.6711 9.29212 12.9378 C8.95103 13.2046 8.55471 13.4085 8.10282 13.5492 C7.65058 13.6902 7.17645 13.7902 6.6801 13.8493 C6.1834 13.9087 5.67593 13.9382 5.15735 13.9382 C4.65335 13.9382 4.17923 13.9382 3.73463 13.9382 C3.11219 13.9236 2.48975 13.9382 1.86732 13.9826 C1.24488 14.0271 0.622439 14.0344 0 14.0049 L0.0222299 13.827 L2.08962 13.3824 C2.08962 11.3967 2.07468 9.41438 2.04516 7.43592 C2.01528 5.45745 2.02293 3.47551 2.06739 1.48941 L0.13338 1.02258 L0.11115 0.889198 C1.13373 0.919069 2.14137 0.911429 3.13442 0.866968 C4.12713 0.822508 5.13512 0.800279 6.1577 0.800279 C6.60229 0.800279 7.04689 0.85238 7.49149 0.955888 C7.93609 1.05974 8.33241 1.22647 8.68079 1.45606 C9.02883 1.686 9.31053 1.98229 9.52553 2.34526 C9.74019 2.70858 9.85516 3.14206 9.8701 3.64571 C9.88469 4.22369 9.78847 4.70546 9.58111 5.09066 C9.3734 5.47621 9.09934 5.79472 8.7586 6.04655 C8.41751 6.29872 8.02119 6.50608 7.5693 6.66898 C7.11706 6.83224 6.64675 6.96562 6.1577 7.06912 C6.66134 7.11358 7.16916 7.19139 7.68045 7.30254 C8.19174 7.41369 8.65092 7.59153 9.0587 7.83606 C9.46614 8.08059 9.79577 8.40292 10.0479 8.80306 C10.2998 9.2032 10.4258 9.71449 10.4258 10.3369 C10.4258 10.9594 10.322 11.4818 10.1146 11.9041 Z M7.82494 2.80097 C7.67663 2.48975 7.47274 2.22682 7.21362 2.01181 C6.95415 1.79715 6.65405 1.6339 6.31331 1.52275 C5.97221 1.4116 5.61654 1.35603 5.24627 1.35603 L3.95693 1.35603 C3.95693 2.28969 3.95311 3.21223 3.94582 4.12366 C3.93817 5.03508 3.9347 5.95763 3.9347 6.89128 C4.45328 6.89128 4.95728 6.85065 5.44634 6.76902 C5.9354 6.68774 6.37235 6.5356 6.7579 6.31331 C7.14311 6.09101 7.45433 5.78361 7.69156 5.39076 C7.92845 4.99827 8.04724 4.49045 8.04724 3.86801 C8.04724 3.46787 7.97291 3.11219 7.82494 2.80097 Z M8.10282 8.79194 C7.81383 8.39945 7.44321 8.10282 6.99132 7.90275 C6.53908 7.70268 6.04272 7.5693 5.50191 7.50261 C4.96075 7.43592 4.43835 7.40257 3.9347 7.40257 L3.9347 13.4269 C4.43835 13.4269 4.96075 13.3824 5.50191 13.2935 C6.04272 13.2046 6.53908 13.0417 6.99132 12.8045 C7.44321 12.5676 7.81383 12.2525 8.10282 11.8597 C8.39181 11.4672 8.5363 10.9594 8.5363 10.3369 C8.5363 9.6999 8.39181 9.18479 8.10282 8.79194 Z M30.1217 15.7833 C30.0178 15.9166 29.8883 16.024 29.7326 16.1056 C29.577 16.1869 29.4103 16.2463 29.2325 16.2834 C29.0546 16.3203 28.8914 16.339 28.7434 16.339 C28.0171 16.339 27.4614 16.2018 27.0762 15.9278 C26.6906 15.6534 26.4093 15.2942 26.2314 14.8496 C26.0536 14.405 25.9497 13.9014 25.9202 13.338 C25.8903 12.7749 25.8646 12.2042 25.8424 11.6263 C25.8202 11.0483 25.7719 10.4891 25.6979 9.9479 C25.6236 9.40709 25.4607 8.93644 25.2089 8.5363 C25.031 8.26954 24.8233 8.06218 24.5864 7.91386 C24.3492 7.76589 24.0897 7.65474 23.8084 7.58041 C23.5267 7.50643 23.2377 7.45815 22.9414 7.43592 C22.6448 7.41369 22.3558 7.39528 22.0744 7.38034 C22.0744 8.40292 22.0855 9.41438 22.1078 10.4147 C22.13 11.4151 22.1262 12.4265 22.0967 13.4491 L24.1863 13.827 L24.1863 13.9604 C22.1856 13.9159 20.1849 13.9159 18.1842 13.9604 L18.1842 13.827 L20.2293 13.3824 C20.2738 11.3967 20.2811 9.41438 20.2516 7.43592 C20.2217 5.45745 20.2071 3.47551 20.2071 1.48941 L18.362 1.08927 L18.362 0.911429 C19.3252 0.941299 20.2773 0.926364 21.2186 0.866968 C22.1595 0.807919 23.1043 0.778048 24.0529 0.778048 C24.542 0.778048 25.0199 0.83015 25.4867 0.933658 C25.9536 1.03751 26.3721 1.20806 26.7427 1.44495 C27.113 1.68218 27.4131 1.98958 27.643 2.36749 C27.8726 2.7454 27.9876 3.21605 27.9876 3.77909 C27.9876 4.34248 27.8688 4.8166 27.6319 5.20181 C27.3947 5.58736 27.0835 5.90587 26.6983 6.1577 C26.3127 6.40987 25.883 6.60994 25.4089 6.7579 C24.9345 6.90622 24.4676 7.01737 24.0084 7.09135 C24.4826 7.21014 24.9643 7.36923 25.4534 7.5693 C25.9424 7.76937 26.3572 8.06218 26.6983 8.44738 C27.1574 8.9809 27.4541 9.55888 27.5875 10.1813 C27.7208 10.8038 27.791 11.4189 27.7986 12.0264 C27.8059 12.6343 27.7986 13.2084 27.7764 13.7492 C27.7542 14.29 27.8243 14.7458 27.9876 15.1164 C28.0171 15.1903 28.0727 15.2866 28.1543 15.4054 C28.2356 15.5238 28.3283 15.6349 28.4322 15.7388 C28.5357 15.8423 28.6469 15.9128 28.7656 15.95 C28.8841 15.9868 28.9879 15.9535 29.0769 15.85 C29.1064 15.8201 29.1286 15.761 29.1436 15.6721 C29.1581 15.5832 29.1658 15.4866 29.1658 15.3831 C29.1658 15.2942 29.1658 15.1976 29.1658 15.0941 C29.1658 14.9903 29.1731 14.9087 29.188 14.8496 C29.2325 14.7162 29.3214 14.6162 29.4548 14.5495 C29.5882 14.4828 29.725 14.4641 29.866 14.4939 C30.0067 14.5235 30.1251 14.6051 30.2217 14.7385 C30.3179 14.8718 30.3513 15.0643 30.3217 15.3164 C30.2919 15.4943 30.2252 15.6499 30.1217 15.7833 Z M25.9202 2.78986 C25.7719 2.47135 25.568 2.20841 25.3089 2.0007 C25.0494 1.79333 24.7455 1.6339 24.3975 1.52275 C24.0491 1.4116 23.6823 1.35603 23.2971 1.35603 L22.03 1.35603 C22.0446 2.2751 22.0557 3.19 22.0633 4.10143 C22.0706 5.01285 22.0744 5.9281 22.0744 6.84682 L22.8747 6.82459 C23.8084 6.81001 24.5826 6.56895 25.1977 6.10212 C25.8125 5.63529 26.1276 4.89823 26.1425 3.89024 C26.1425 3.47551 26.0682 3.10872 25.9202 2.78986 Z M48.7281 13.9382 C47.8834 13.9236 47.031 13.9159 46.1717 13.9159 C45.3269 13.9159 44.4822 13.9309 43.6375 13.9604 L43.6375 13.827 L45.238 13.4491 L44.0154 9.71449 C43.8077 9.61098 43.5409 9.61098 43.2151 9.71449 C42.8889 9.81834 42.5405 9.95172 42.1703 10.1146 C41.7997 10.2779 41.4179 10.4408 41.0254 10.6037 C40.6326 10.7669 40.2658 10.8632 39.9251 10.8927 L39.1915 13.4491 L41.0143 13.827 L41.0143 13.9604 C39.6062 13.9159 38.1984 13.9159 36.7906 13.9604 L36.7906 13.827 L38.1911 13.4269 C38.354 12.9972 38.5169 12.5676 38.6802 12.1376 C38.8431 11.7079 38.9838 11.2706 39.1025 10.826 C38.5096 10.678 38.1651 10.4036 38.0689 10.0035 C37.9723 9.60334 38.065 9.16638 38.3467 8.69191 C38.1984 9.1959 38.2168 9.54047 38.4023 9.7256 C38.5874 9.91108 38.9171 9.98889 39.3915 9.95902 C39.8212 8.38833 40.2696 6.83571 40.7364 5.30184 C41.2033 3.76798 41.6291 2.20841 42.0147 0.622439 L42.8149 0.622439 C43.5409 2.78638 44.2856 4.92775 45.0491 7.04689 C45.8122 9.16638 46.5864 11.3005 47.3721 13.4491 L48.7281 13.827 L48.7281 13.9604 L48.7281 13.9382 Z M42.9483 6.59118 C42.6222 5.65023 42.3037 4.70546 41.9924 3.75686 C41.6958 4.73498 41.4033 5.7131 41.1144 6.69121 C40.8254 7.66933 40.5475 8.65509 40.2807 9.6478 C40.4141 9.58875 40.5732 9.51094 40.7587 9.41438 C40.9438 9.31817 41.1366 9.22925 41.3367 9.14762 C41.5367 9.06635 41.733 8.99583 41.9257 8.93644 C42.1182 8.87739 42.2887 8.84752 42.437 8.84752 C42.6739 8.84752 42.9445 8.89198 43.2484 8.9809 C43.552 9.06982 43.7781 9.21813 43.9264 9.4255 C43.6003 8.47725 43.2741 7.53248 42.9483 6.59118 Z M65.4895 10.0035 C65.4895 11.0115 65.2522 11.8374 64.7781 12.4821 C64.3036 13.1268 63.7073 13.5752 62.9886 13.827 C62.2696 14.0789 61.4881 14.1382 60.6433 14.0049 C59.7986 13.8715 59.0129 13.538 58.287 13.0045 L56.8198 14.8718 L56.7086 14.7829 C57.2123 13.9236 57.5013 13.075 57.5756 12.2376 C57.6496 11.4005 57.6124 10.5002 57.4645 9.53665 L57.6868 9.53665 C57.7903 10.4408 58.0275 11.1817 58.3981 11.7596 C58.7684 12.3376 59.2057 12.7676 59.7097 13.049 C60.2133 13.3307 60.7396 13.4825 61.288 13.5047 C61.8361 13.5269 62.3439 13.4345 62.8108 13.2268 C63.2776 13.0195 63.6628 12.7082 63.9667 12.2932 C64.2703 11.8784 64.4224 11.3744 64.4224 10.7815 C64.4224 10.2035 64.2519 9.75547 63.9111 9.43661 C63.5701 9.1181 63.1442 8.85863 62.6329 8.65856 C62.1216 8.4585 61.5659 8.28066 60.9657 8.12505 C60.3655 7.96944 59.8097 7.75478 59.2984 7.48038 C58.7871 7.20632 58.361 6.83953 58.0202 6.38 C57.6791 5.92081 57.5089 5.29073 57.5089 4.49045 C57.5089 3.57173 57.709 2.81973 58.1091 2.23411 C58.5093 1.64884 59.0167 1.23376 59.6319 0.989233 C60.2467 0.744704 60.9247 0.678013 61.6659 0.789163 C62.4068 0.900313 63.1182 1.19312 63.8 1.66725 L65.0449 0 L65.2227 0.0222298 C65.0299 0.526225 64.8743 0.959709 64.7559 1.32268 C64.6371 1.686 64.5447 2.03786 64.478 2.3786 C64.4113 2.7197 64.378 3.08267 64.378 3.46787 C64.378 3.85342 64.4002 4.32025 64.4447 4.86836 L64.2224 4.86836 C64.148 4.06808 63.9629 3.4123 63.6666 2.90101 C63.37 2.38972 63.0143 2.00834 62.5996 1.75617 C62.1845 1.50434 61.7472 1.37096 61.288 1.35603 C60.8285 1.34144 60.4061 1.42272 60.0209 1.60056 C59.6354 1.7784 59.313 2.04168 59.0539 2.38972 C58.7944 2.7381 58.6649 3.14936 58.6649 3.62348 C58.6649 4.2164 58.8316 4.66482 59.1651 4.96839 C59.4985 5.27232 59.9209 5.51685 60.4322 5.70198 C60.9434 5.88746 61.4916 6.05419 62.0772 6.20216 C62.6625 6.35047 63.2109 6.56166 63.7222 6.83571 C64.2335 7.11011 64.6559 7.49149 64.9893 7.98055 C65.3228 8.46961 65.4895 9.15144 65.4895 10.0257 L65.4895 10.0035 Z M83.0068 10.0035 C83.0068 11.0115 82.7695 11.8374 82.2954 12.4821 C81.8209 13.1268 81.2245 13.5752 80.5059 13.827 C79.7869 14.0789 79.0054 14.1382 78.1606 14.0049 C77.3159 13.8715 76.5302 13.538 75.8043 13.0045 L74.3371 14.8718 L74.2259 14.7829 C74.7296 13.9236 75.0186 13.075 75.0929 12.2376 C75.1669 11.4005 75.1297 10.5002 74.9817 9.53665 L75.204 9.53665 C75.3076 10.4408 75.5448 11.1817 75.9154 11.7596 C76.2857 12.3376 76.723 12.7676 77.227 13.049 C77.7306 13.3307 78.2568 13.4825 78.8053 13.5047 C79.3534 13.5269 79.8612 13.4345 80.3281 13.2268 C80.7949 13.0195 81.1801 12.7082 81.484 12.2932 C81.7876 11.8784 81.9397 11.3744 81.9397 10.7815 C81.9397 10.2035 81.7692 9.75547 81.4284 9.43661 C81.0873 9.1181 80.6615 8.85863 80.1502 8.65856 C79.6389 8.4585 79.0832 8.28066 78.483 8.12505 C77.8828 7.96944 77.327 7.75478 76.8157 7.48038 C76.3044 7.20632 75.8782 6.83953 75.5375 6.38 C75.1964 5.92081 75.0262 5.29073 75.0262 4.49045 C75.0262 3.57173 75.2263 2.81973 75.6264 2.23411 C76.0266 1.64884 76.534 1.23376 77.1492 0.989233 C77.764 0.744704 78.442 0.678013 79.1832 0.789163 C79.9241 0.900313 80.6354 1.19312 81.3173 1.66725 L82.5622 0 L82.74 0.0222298 C82.5472 0.526225 82.3916 0.959709 82.2732 1.32268 C82.1544 1.686 82.062 2.03786 81.9953 2.3786 C81.9286 2.7197 81.8953 3.08267 81.8953 3.46787 C81.8953 3.85342 81.9175 4.32025 81.9619 4.86836 L81.7397 4.86836 C81.6653 4.06808 81.4802 3.4123 81.1839 2.90101 C80.8873 2.38972 80.5316 2.00834 80.1169 1.75617 C79.7018 1.50434 79.2645 1.37096 78.8053 1.35603 C78.3458 1.34144 77.9234 1.42272 77.5382 1.60056 C77.1526 1.7784 76.8303 2.04168 76.5712 2.38972 C76.3117 2.7381 76.1822 3.14936 76.1822 3.62348 C76.1822 4.2164 76.3489 4.66482 76.6823 4.96839 C77.0158 5.27232 77.4382 5.51685 77.9494 5.70198 C78.4607 5.88746 79.0088 6.05419 79.5945 6.20216 C80.1797 6.35047 80.7282 6.56166 81.2395 6.83571 C81.7508 7.11011 82.1731 7.49149 82.5066 7.98055 C82.84 8.46961 83.0068 9.15144 83.0068 10.0257 L83.0068 10.0035 Z M102.547 11.9041 C102.502 12.6231 102.465 13.3456 102.436 14.0716 C101.131 14.0566 99.8271 14.0271 98.5232 13.9826 C97.2189 13.9382 95.9147 13.9159 94.6107 13.9159 C94.1661 13.9159 93.7139 13.9159 93.2547 13.9159 C92.8101 13.9159 92.3655 13.9309 91.9209 13.9604 L91.9209 13.8048 L94.0327 13.3602 C94.0918 9.38868 94.0918 5.40952 94.0327 1.42272 L92.1877 1.06704 L92.1877 0.911429 C93.8327 0.911429 95.4666 0.926364 97.0894 0.955888 C98.7122 0.98576 100.346 0.926364 101.991 0.778048 C101.932 1.3859 101.921 1.98958 101.958 2.58979 C101.995 3.19 102.028 3.79403 102.058 4.40153 L101.902 4.40153 C101.739 3.57173 101.465 2.95311 101.08 2.54533 C100.694 2.1379 100.235 1.8562 99.7014 1.70059 C99.1679 1.54498 98.5788 1.47482 97.9341 1.48941 C97.2894 1.50434 96.626 1.51164 95.9445 1.51164 L95.8778 6.78013 C96.337 6.78013 96.8188 6.78013 97.3228 6.78013 C97.8414 6.78013 98.312 6.71727 98.7344 6.59118 C99.1568 6.46544 99.4975 6.2355 99.757 5.90205 C100.016 5.5686 100.131 5.06113 100.102 4.3793 L100.257 4.3793 C100.213 5.28343 100.198 6.18375 100.213 7.08024 C100.227 7.97708 100.235 8.87739 100.235 9.78118 L100.079 9.78118 C99.9754 9.02536 99.816 8.47343 99.6014 8.12505 C99.3863 7.77701 99.1047 7.54359 98.7566 7.4248 C98.4082 7.30636 97.9932 7.25808 97.5117 7.28031 C97.03 7.30254 96.478 7.30636 95.8556 7.29142 L95.9668 13.3824 C96.7816 13.3974 97.5673 13.4123 98.3231 13.4269 C99.0789 13.4418 99.7531 13.3491 100.346 13.149 C100.939 12.9489 101.432 12.5898 101.824 12.0709 C102.217 11.5523 102.472 10.7742 102.591 9.73672 L102.747 9.73672 C102.658 10.463 102.591 11.1855 102.547 11.9041 Z M123.598 15.7833 C123.494 15.9166 123.365 16.024 123.209 16.1056 C123.054 16.1869 122.887 16.2463 122.709 16.2834 C122.531 16.3203 122.368 16.339 122.22 16.339 C121.494 16.339 120.938 16.2018 120.553 15.9278 C120.167 15.6534 119.886 15.2942 119.708 14.8496 C119.53 14.405 119.426 13.9014 119.397 13.338 C119.367 12.7749 119.341 12.2042 119.319 11.6263 C119.297 11.0483 119.249 10.4891 119.175 9.9479 C119.1 9.40709 118.937 8.93644 118.685 8.5363 C118.508 8.26954 118.3 8.06218 118.063 7.91386 C117.826 7.76589 117.566 7.65474 117.285 7.58041 C117.003 7.50643 116.714 7.45815 116.418 7.43592 C116.121 7.41369 115.832 7.39528 115.551 7.38034 C115.551 8.40292 115.562 9.41438 115.584 10.4147 C115.607 11.4151 115.603 12.4265 115.573 13.4491 L117.663 13.827 L117.663 13.9604 C115.662 13.9159 113.662 13.9159 111.661 13.9604 L111.661 13.827 L113.706 13.3824 C113.75 11.3967 113.758 9.41438 113.728 7.43592 C113.698 5.45745 113.684 3.47551 113.684 1.48941 L111.839 1.08927 L111.839 0.911429 C112.802 0.941299 113.754 0.926364 114.695 0.866968 C115.636 0.807919 116.581 0.778048 117.53 0.778048 C118.019 0.778048 118.497 0.83015 118.963 0.933658 C119.43 1.03751 119.849 1.20806 120.219 1.44495 C120.59 1.68218 120.89 1.98958 121.12 2.36749 C121.349 2.7454 121.464 3.21605 121.464 3.77909 C121.464 4.34248 121.345 4.8166 121.109 5.20181 C120.871 5.58736 120.56 5.90587 120.175 6.1577 C119.789 6.40987 119.36 6.60994 118.886 6.7579 C118.411 6.90622 117.944 7.01737 117.485 7.09135 C117.959 7.21014 118.441 7.36923 118.93 7.5693 C119.419 7.76937 119.834 8.06218 120.175 8.44738 C120.634 8.9809 120.931 9.55888 121.064 10.1813 C121.197 10.8038 121.268 11.4189 121.275 12.0264 C121.283 12.6343 121.275 13.2084 121.253 13.7492 C121.231 14.29 121.301 14.7458 121.464 15.1164 C121.494 15.1903 121.549 15.2866 121.631 15.4054 C121.712 15.5238 121.805 15.6349 121.909 15.7388 C122.012 15.8423 122.123 15.9128 122.242 15.95 C122.361 15.9868 122.465 15.9535 122.554 15.85 C122.583 15.8201 122.605 15.761 122.62 15.6721 C122.635 15.5832 122.642 15.4866 122.642 15.3831 C122.642 15.2942 122.642 15.1976 122.642 15.0941 C122.642 14.9903 122.65 14.9087 122.665 14.8496 C122.709 14.7162 122.798 14.6162 122.931 14.5495 C123.065 14.4828 123.202 14.4641 123.343 14.4939 C123.483 14.5235 123.602 14.6051 123.698 14.7385 C123.795 14.8718 123.828 15.0643 123.798 15.3164 C123.769 15.4943 123.702 15.6499 123.598 15.7833 Z M119.397 2.78986 C119.249 2.47135 119.045 2.20841 118.786 2.0007 C118.526 1.79333 118.222 1.6339 117.874 1.52275 C117.526 1.4116 117.159 1.35603 116.774 1.35603 L115.507 1.35603 C115.521 2.2751 115.532 3.19 115.54 4.10143 C115.547 5.01285 115.551 5.9281 115.551 6.84682 L116.351 6.82459 C117.285 6.81001 118.059 6.56895 118.674 6.10212 C119.289 5.63529 119.604 4.89823 119.619 3.89024 C119.619 3.47551 119.545 3.10872 119.397 2.78986 Z M134.013 13.9382 C132.998 13.9531 131.979 13.9604 130.956 13.9604 L130.956 13.827 L133.09 13.4491 C133.164 9.44773 133.164 5.43904 133.09 1.42272 L130.956 1.02258 L130.956 0.889198 C131.979 0.919069 132.998 0.930185 134.013 0.922543 C135.028 0.915248 136.047 0.911429 137.07 0.911429 L137.07 1.02258 L134.958 1.42272 C134.928 3.43835 134.913 5.44634 134.913 7.44703 C134.913 9.43314 134.928 11.4338 134.958 13.4491 L137.07 13.827 L137.07 13.9604 C136.047 13.9309 135.028 13.9236 134.013 13.9382 Z M156.254 11.9041 C156.21 12.6231 156.172 13.3456 156.143 14.0716 C154.839 14.0566 153.534 14.0271 152.23 13.9826 C150.926 13.9382 149.622 13.9159 148.318 13.9159 C147.873 13.9159 147.421 13.9159 146.962 13.9159 C146.517 13.9159 146.073 13.9309 145.628 13.9604 L145.628 13.8048 L147.74 13.3602 C147.799 9.38868 147.799 5.40952 147.74 1.42272 L145.895 1.06704 L145.895 0.911429 C147.54 0.911429 149.174 0.926364 150.797 0.955888 C152.419 0.98576 154.053 0.926364 155.698 0.778048 C155.639 1.3859 155.628 1.98958 155.665 2.58979 C155.702 3.19 155.735 3.79403 155.765 4.40153 L155.609 4.40153 C155.446 3.57173 155.172 2.95311 154.787 2.54533 C154.401 2.1379 153.942 1.8562 153.409 1.70059 C152.875 1.54498 152.286 1.47482 151.641 1.48941 C150.997 1.50434 150.333 1.51164 149.652 1.51164 L149.585 6.78013 C150.044 6.78013 150.526 6.78013 151.03 6.78013 C151.549 6.78013 152.019 6.71727 152.442 6.59118 C152.864 6.46544 153.205 6.2355 153.464 5.90205 C153.723 5.5686 153.838 5.06113 153.809 4.3793 L153.964 4.3793 C153.92 5.28343 153.905 6.18375 153.92 7.08024 C153.934 7.97708 153.942 8.87739 153.942 9.78118 L153.786 9.78118 C153.683 9.02536 153.523 8.47343 153.309 8.12505 C153.094 7.77701 152.812 7.54359 152.464 7.4248 C152.115 7.30636 151.7 7.25808 151.219 7.28031 C150.737 7.30254 150.185 7.30636 149.563 7.29142 L149.674 13.3824 C150.489 13.3974 151.274 13.4123 152.03 13.4269 C152.786 13.4418 153.46 13.3491 154.053 13.149 C154.646 12.9489 155.139 12.5898 155.532 12.0709 C155.924 11.5523 156.18 10.7742 156.298 9.73672 L156.454 9.73672 C156.365 10.463 156.298 11.1855 156.254 11.9041 Z" transform="translate(90.0144, 123.818)" style="fill:#171615; fill-rule:nonzero;stroke-width:0.399983; stroke-linecap:butt; stroke-linejoin:miter; stroke-dasharray:none; stroke:#171615;" id="u2ea2"/>
    <path d="M1.97587 72.3625 L7.55624 67.5866 L8.38917 68.8736 C13.1173 76.2809 23.2009 88.3768 32.5414 99.2906 C38.2894 106.007 45.6294 114.269 49.6217 118.307 L54.5121 123.393 C56.0143 124.835 57.1819 126.199 57.9902 127.143 C61.1336 130.816 61.6319 132.026 60.6786 135.933 C60.328 136.778 60.4424 137.226 60.7118 137.541 C61.4303 138.38 62.385 137.927 64.7102 135.937 L85.4815 118.16 L87.0317 116.833 C90.9069 113.517 91.0779 112.461 88.2039 109.103 L70.8701 88.8495 L67.4599 91.7681 C82.4512 111.481 83.2116 115.194 73.911 123.154 C73.446 123.552 72.9809 123.95 72.5159 124.347 C71.5858 125.143 70.3458 126.205 68.4856 127.797 L67.6527 126.51 C66.5504 124.908 64.3456 121.704 60.8183 117.269 L52.2123 106.272 C50.3016 103.726 47.3132 99.9201 43.1819 95.0928 C37.344 88.2717 32.0943 82.7653 27.0243 77.4687 L22.2236 72.487 L21.8644 72.0673 L21.5949 71.7524 C19.8885 69.7586 19.3742 69.4715 18.9252 68.9468 C18.8354 68.8418 18.8354 68.8418 18.7456 68.7369 C18.7456 68.7369 18.6557 68.6319 18.5659 68.527 C18.2965 68.2122 17.9373 67.7924 17.4882 67.2677 C17.3984 67.1628 17.3086 67.0578 17.2188 66.9529 C15.5529 64.3789 15.2342 63.3789 16.0572 59.9475 C16.318 58.9971 16.2036 58.5496 15.9341 58.2348 C15.2156 57.3953 14.416 57.7161 12.0908 59.706 L0 70.0538 L1.97587 72.3625 Z M117.036 81.5893 L112.935 83.4135 C113.44 84.5493 113.664 85.0541 113.945 85.6851 C117.145 92.8789 116.126 98.6227 110.907 100.944 C104.568 103.764 100.03 99.5841 93.5183 84.9443 C93.3499 84.5656 93.1254 84.0608 92.7886 83.3036 L106.397 77.2507 C113.295 74.1828 113.89 73.011 111.813 68.3414 C107.042 57.6139 99.2018 53.5424 90.6265 57.3565 C79.4412 62.3315 77.4793 73.4839 84.7205 89.7644 C91.625 105.288 100.157 110.412 111.155 105.52 C119.917 101.623 122.723 93.8745 118.457 84.2829 C118.064 83.3995 117.653 82.9776 117.036 81.5893 Z M91.6659 80.7795 C86.9126 69.5905 86.6416 62.4547 91.3022 60.3818 C95.217 58.6406 98.8214 61.7238 102.638 70.3057 C104.322 74.0919 103.783 75.3899 100.241 76.9653 L98.1907 77.8774 L91.6659 80.7795 Z M166.859 69.5425 C166.88 70.5098 166.893 71.0625 166.902 71.477 L167.437 77.2572 C167.449 77.8099 167.465 78.5008 167.477 79.0535 C167.642 86.515 165.875 89.6595 161.598 89.9034 C156.302 90.2055 153.078 82.78 150.611 63.4133 C150.602 62.9987 150.386 62.4577 150.374 61.9049 L146.504 62.1257 L147.22 94.5972 L151.702 94.3416 L151.62 90.6108 C155.143 93.1769 158.22 93.9699 162.498 93.7259 C166.979 93.4703 170.412 91.8911 172.792 88.8499 C176.565 84.2076 177.145 82.7909 176.612 58.61 L176.359 47.1414 C176.343 46.4505 176.331 45.8978 176.319 45.3451 C176.27 43.1342 175.987 39.5533 175.883 34.8553 C175.564 29.6162 175.479 25.7472 175.22 23.2717 L174.66 16.386 C174.408 14.1868 174.368 12.3905 174.341 11.147 C174.234 6.31078 174.617 5.18213 177.824 2.64724 C178.627 2.04806 178.821 1.62191 178.812 1.20739 C178.788 0.10197 177.967 -0.12792 174.708 0.0579595 L159.023 0.952503 L159.09 3.99238 L166.219 3.58577 L166.253 5.10573 C166.448 13.949 165.367 29.6443 165.693 44.4292 C165.888 53.2725 165.989 57.8323 166.859 69.5425 Z M193.019 42.1779 L189.744 58.708 L192.946 59.3424 C197.454 50.2379 201.635 46.9826 206.638 47.9738 C210.641 48.7668 211.173 50.2803 209.912 56.6485 L207.845 67.0815 C206.351 66.2223 204.804 65.6341 202.402 65.1583 C192.195 63.1362 184.355 68.0605 182.45 77.6805 C180.624 86.894 185.101 93.6949 194.107 95.4791 C197.51 96.1531 200.326 95.5846 202.503 94.0445 C202.476 94.18 202.449 94.3155 202.423 94.451 C202.047 96.3479 202.594 96.7379 206.796 97.5705 L216.403 99.4737 L216.94 96.7638 L209.935 95.3761 L210.431 93.9253 C213.042 85.994 214.477 79.801 216.06 71.8069 C220.382 49.9925 219.637 47.4512 207.829 45.1119 C203.626 44.2793 200.29 44.3224 196.312 45.5056 L196.822 42.9312 L193.019 42.1779 Z M207.254 70.0623 L204.409 84.4246 C203.067 91.1992 201.717 92.7624 197.514 91.9297 C192.911 91.0178 191.261 86.7482 192.764 79.1606 C194.348 71.1665 198.009 67.3858 203.212 68.4167 C204.613 68.6943 205.76 69.2031 207.254 70.0623 Z M255.531 98.0716 L252.616 96.6011 C246.59 107.639 242.302 109.344 232.284 104.289 L228.64 102.451 L230.054 101.462 C237.488 96.2393 242.455 93.6403 247.557 89.8709 L257.021 82.8883 C260.279 80.5092 262.491 78.8409 263.66 77.8834 L266.735 75.4124 C269.072 73.4975 269.748 73.0647 270.246 72.0781 C270.992 70.5983 270.21 69.4303 267.114 67.8679 C266.932 67.776 266.749 67.6841 266.567 67.5922 L264.017 66.3055 L245.073 56.7471 L237.793 71.1754 L240.708 72.6459 C245.867 62.8724 248.867 61.9102 258.885 66.9651 L262.71 68.8951 C262.035 69.3279 261.484 69.5141 261.115 69.7921 C259.764 70.6577 256.756 72.5435 252.579 75.3868 L241.768 82.7732 C237.222 85.8945 229.046 92.1349 224.127 95.9962 C222.221 97.5098 221.603 98.2811 221.23 99.021 C220.359 100.747 221.021 101.7 225.028 103.722 L247.069 114.843 L255.531 98.0716 Z M286.997 123.208 L284.517 121.086 C276.034 130.37 271.464 131.003 262.938 123.707 L259.838 121.054 L261.446 120.43 C269.91 117.129 275.354 115.789 281.206 113.344 L292.062 108.817 C295.793 107.283 298.339 106.19 299.703 105.539 L303.278 103.871 C306.004 102.569 306.763 102.309 307.482 101.47 C308.559 100.21 308.078 98.8897 305.443 96.6344 C305.288 96.5018 305.133 96.3691 304.978 96.2364 L302.808 94.3792 L286.687 80.5821 L276.179 92.8602 L278.659 94.9828 C285.999 86.7202 289.141 86.5005 297.667 93.797 L300.922 96.5829 C300.163 96.8423 299.583 96.8918 299.159 97.0739 C297.641 97.5927 294.27 98.7074 289.536 100.474 L277.276 105.071 C272.117 107.019 262.69 111.132 256.992 113.71 C254.78 114.725 253.997 115.327 253.458 115.957 C252.2 117.426 252.616 118.509 256.026 121.428 L274.783 137.48 L286.997 123.208 Z" transform="translate(0, 0)" style="fill:#ab0d25; fill-rule:nonzero;stroke:none;" id="u2ea3"/>
   </g>
  </symbol>
 </defs>
 <g inkscape:label="Fundo" inkscape:groupmode="layer" id="Fundo">
  <use width="308.018" height="140.357" transform="translate(0, 0) scale(0.99676, 1)" id="Símbolo279" xlink:href="#SPattern_u2ea1" y="0" x="0"/>
 </g>
</svg>
