<?xml version="1.0" encoding="UTF-8"?>
<svg xmlns:inkscape="http://www.inkscape.org/namespaces/inkscape" xmlns="http://www.w3.org/2000/svg" width="193.012pt" height="193.012pt" xmlns:xlink="http://www.w3.org/1999/xlink" viewBox="0 0 193.012 193.012" version="1.1">
 <defs>
  <clipPath id="Clip0">
   <path d="M0 0 L119.375 0 L119.375 14.0233 L0 14.0233 L0 0 Z"/>
  </clipPath>
 </defs>
 <g inkscape:label="Fundo" id="Fundo" inkscape:groupmode="layer">
  <path id="u258" transform="translate(0, 0)" d="M96.5058 193.012 C149.804 193.012 193.012 149.804 193.012 96.5058 C193.012 43.2071 149.804 0 96.5058 0 C43.2071 0 0 43.2071 0 96.5058 C0 149.804 43.2071 193.012 96.5058 193.012 Z" style="fill:#ab0d25; fill-rule:nonzero;stroke:none;"/>
  <g id="u26e" transform="translate(49.0423, 41.316) rotate(323)">
   <path d="M0 2.50194 L6.04746 2.50194 L5.87948 3.75291 C4.87157 10.9176 4.70358 23.8822 4.70358 35.7095 C4.70358 42.9879 4.87157 52.0858 5.20754 56.7485 L5.54351 62.5485 C5.71149 64.2544 5.71149 65.7328 5.71149 66.7563 C5.71149 70.7367 5.37552 71.7602 2.68776 73.6935 C2.01582 74.0347 1.84784 74.3758 1.84784 74.717 C1.84784 75.6268 2.68776 75.8543 5.20754 75.8543 L27.7175 75.8543 L29.3974 75.8543 C33.597 75.8543 34.2689 75.2856 34.2689 71.6465 L34.2689 49.6976 L30.5733 49.6976 C29.3974 70.0543 27.8855 72.7837 17.8064 72.7837 C17.3025 72.7837 16.7985 72.7837 16.2945 72.7837 C15.2866 72.7837 13.9428 72.7837 11.9269 72.7837 L12.0949 71.5327 C12.2629 69.9406 12.5989 66.7563 12.7669 62.0936 L13.2708 50.6074 C13.4388 47.9918 13.6068 44.0114 13.6068 38.7801 C13.6068 31.388 13.2708 25.1331 12.9348 19.1057 L12.5989 13.4195 L12.5989 12.9646 L12.5989 12.6234 C12.5989 10.4627 12.4309 10.0078 12.4309 9.43913 C12.4309 9.32541 12.4309 9.32541 12.4309 9.21169 C12.4309 9.21169 12.4309 9.09796 12.4309 8.98424 C12.4309 8.64306 12.4309 8.18816 12.4309 7.61954 C12.4309 7.50582 12.4309 7.39209 12.4309 7.27837 C12.7669 4.77643 13.1028 3.98036 15.4546 2.27449 C16.1266 1.81959 16.2945 1.47842 16.2945 1.13725 C16.2945 0.227448 15.6226 -1.13687e-13 13.1028 0 L2.27374e-13 5.68434e-14 L0 2.50194 Z M67.0239 60.3877 L63.3283 60.3877 C63.3283 61.4112 63.3283 61.8661 63.3283 62.4348 C63.3283 68.9171 60.6405 72.8974 55.9369 72.8974 C50.2254 72.8974 48.2096 68.2347 48.2096 55.0427 C48.2096 54.7015 48.2096 54.2466 48.2096 53.5643 L60.4725 53.5643 C66.688 53.5643 67.5279 52.8819 67.5279 48.6741 C67.5279 39.0075 62.9923 33.3213 55.265 33.3213 C45.1859 33.3213 39.9783 41.0546 39.9783 55.725 C39.9783 69.7131 44.6819 76.4229 54.593 76.4229 C62.4883 76.4229 67.1919 71.5327 67.1919 62.8897 C67.1919 62.0936 67.0239 61.6387 67.0239 60.3877 Z M48.2096 51.2898 C48.3776 41.282 50.5614 35.8232 54.761 35.8232 C58.2887 35.8232 59.9686 39.3487 59.9686 47.082 C59.9686 50.4937 59.1286 51.2898 55.9369 51.2898 L54.0891 51.2898 L48.2096 51.2898 Z" style="fill:#ffffff; fill-rule:nonzero;"/>
   <path d="M0 2.50194 L6.04746 2.50194 L5.87948 3.75291 C4.87157 10.9176 4.70358 23.8822 4.70358 35.7095 C4.70358 42.9879 4.87157 52.0858 5.20754 56.7485 L5.54351 62.5485 C5.71149 64.2544 5.71149 65.7328 5.71149 66.7563 C5.71149 70.7367 5.37552 71.7602 2.68776 73.6935 C2.01582 74.0347 1.84784 74.3758 1.84784 74.717 C1.84784 75.6268 2.68776 75.8543 5.20754 75.8543 L27.7175 75.8543 L29.3974 75.8543 C33.597 75.8543 34.2689 75.2856 34.2689 71.6465 L34.2689 49.6976 L30.5733 49.6976 C29.3974 70.0543 27.8855 72.7837 17.8064 72.7837 C17.3025 72.7837 16.7985 72.7837 16.2945 72.7837 C15.2866 72.7837 13.9428 72.7837 11.9269 72.7837 L12.0949 71.5327 C12.2629 69.9406 12.5989 66.7563 12.7669 62.0936 L13.2708 50.6074 C13.4388 47.9918 13.6068 44.0114 13.6068 38.7801 C13.6068 31.388 13.2708 25.1331 12.9348 19.1057 L12.5989 13.4195 L12.5989 12.9646 L12.5989 12.6234 C12.5989 10.4627 12.4309 10.0078 12.4309 9.43913 C12.4309 9.32541 12.4309 9.32541 12.4309 9.21169 C12.4309 9.21169 12.4309 9.09796 12.4309 8.98424 C12.4309 8.64306 12.4309 8.18816 12.4309 7.61954 C12.4309 7.50582 12.4309 7.39209 12.4309 7.27837 C12.7669 4.77643 13.1028 3.98036 15.4546 2.27449 C16.1266 1.81959 16.2945 1.47842 16.2945 1.13725 C16.2945 0.227448 15.6226 -1.13687e-13 13.1028 0 L2.27374e-13 5.68434e-14 L0 2.50194 Z M67.0239 60.3877 L63.3283 60.3877 C63.3283 61.4112 63.3283 61.8661 63.3283 62.4348 C63.3283 68.9171 60.6405 72.8974 55.9369 72.8974 C50.2254 72.8974 48.2096 68.2347 48.2096 55.0427 C48.2096 54.7015 48.2096 54.2466 48.2096 53.5643 L60.4725 53.5643 C66.688 53.5643 67.5279 52.8819 67.5279 48.6741 C67.5279 39.0075 62.9923 33.3213 55.265 33.3213 C45.1859 33.3213 39.9783 41.0546 39.9783 55.725 C39.9783 69.7131 44.6819 76.4229 54.593 76.4229 C62.4883 76.4229 67.1919 71.5327 67.1919 62.8897 C67.1919 62.0936 67.0239 61.6387 67.0239 60.3877 Z M48.2096 51.2898 C48.3776 41.282 50.5614 35.8232 54.761 35.8232 C58.2887 35.8232 59.9686 39.3487 59.9686 47.082 C59.9686 50.4937 59.1286 51.2898 55.9369 51.2898 L54.0891 51.2898 L48.2096 51.2898 Z" style="fill:none; stroke:none;"/>
  </g>
  <g id="u284" transform="translate(36.2125, 65.118)">
   <path d="M16.6305 56.7485 C16.6305 57.5446 16.6305 57.9995 16.6305 58.3407 L16.9665 63.1171 C16.9665 63.572 16.9665 64.1406 16.9665 64.5955 C16.9665 70.7367 15.4546 73.2386 11.9269 73.2386 C7.55932 73.2386 5.03955 66.9837 3.35969 50.9486 C3.35969 50.6074 3.19172 50.1525 3.19172 49.6976 L0 49.6976 L0 76.4229 L3.69567 76.4229 L3.69567 73.3523 C6.55141 75.6268 9.07119 76.4229 12.5989 76.4229 C16.2945 76.4229 19.1503 75.2856 21.1661 72.8974 C24.3578 69.2582 24.8618 68.121 24.8618 48.2192 L24.8618 38.7801 C24.8618 38.2114 24.8618 37.7565 24.8618 37.3016 C24.8618 35.4821 24.6938 32.5252 24.6938 28.6586 C24.5258 24.337 24.5258 21.1528 24.3578 19.1057 L24.0219 13.4195 C23.8539 11.5999 23.8539 10.1215 23.8539 9.09796 C23.8539 5.1176 24.1898 4.20781 26.8776 2.27449 C27.5495 1.81959 27.7175 1.47842 27.7175 1.13725 C27.7175 0.227448 27.0456 0 24.3578 0 L11.423 0 L11.423 2.50194 L17.3025 2.50194 L17.3025 3.75291 C17.3025 11.0313 16.1266 23.8822 16.1266 36.0507 C16.1266 43.329 16.1266 47.082 16.6305 56.7485 Z M32.9009 33.3213 L32.9009 47.1957 L35.5887 47.1957 C37.7725 39.1212 40.6282 35.8232 44.8279 35.8232 C48.1876 35.8232 48.8595 36.9605 48.8595 42.3055 L48.8595 51.0623 C47.5156 50.6074 46.1717 50.38 44.1559 50.38 C35.5887 50.38 30.0452 55.6113 30.0452 63.6857 C30.0452 71.419 34.7488 76.1954 42.3081 76.1954 C45.1638 76.1954 47.3476 75.2856 48.8595 73.6935 C48.8595 73.8072 48.8595 73.9209 48.8595 74.0347 C48.8595 75.6268 49.3635 75.8543 52.8911 75.8543 L60.9544 75.8543 L60.9544 73.5798 L55.0749 73.5798 L55.2429 72.3288 C56.0829 65.5053 56.2509 60.274 56.2509 53.5643 C56.2509 35.2546 55.2429 33.3213 45.3318 33.3213 C41.8041 33.3213 39.1164 33.8899 36.0926 35.4821 L36.0926 33.3213 L32.9009 33.3213 Z M48.8595 53.5643 L48.8595 65.6191 C48.8595 71.3053 48.0196 72.7837 44.4919 72.7837 C40.6282 72.7837 38.6124 69.5994 38.6124 63.2308 C38.6124 56.5211 40.9642 52.8819 45.3318 52.8819 C46.5077 52.8819 47.5156 53.1094 48.8595 53.5643 Z M89.5103 60.3877 L86.8225 60.3877 C86.4865 70.7367 83.9668 73.5798 74.7276 73.5798 L71.3679 73.5798 L72.0398 72.3288 C75.5675 65.7328 78.2553 61.9799 80.6071 57.3172 L84.9747 48.6741 C86.4865 45.7173 87.4944 43.6702 87.9984 42.533 L89.3423 39.5761 C90.3502 37.3016 90.6862 36.733 90.6862 35.8232 C90.6862 34.4585 89.6783 33.8899 86.8225 33.8899 C86.6545 33.8899 86.4865 33.8899 86.3185 33.8899 L83.9668 33.8899 L66.4963 33.8899 L66.4963 47.1957 L69.1841 47.1957 C69.3521 38.0977 71.1999 36.2781 80.4391 36.2781 L83.9668 36.2781 C83.6308 36.8467 83.2948 37.1879 83.1268 37.5291 C82.4549 38.6663 80.943 41.1683 78.9272 44.8075 L73.7197 54.2466 C71.5359 58.227 67.8402 65.8465 65.6564 70.5092 C64.8165 72.3288 64.6485 73.1249 64.6485 73.8072 C64.6485 75.3994 65.4884 75.8543 69.1841 75.8543 L89.5103 75.8543 L89.5103 60.3877 Z M119.411 60.3877 L116.723 60.3877 C116.387 70.7367 113.867 73.5798 104.628 73.5798 L101.268 73.5798 L101.94 72.3288 C105.468 65.7328 108.156 61.9799 110.507 57.3172 L114.875 48.6741 C116.387 45.7173 117.395 43.6702 117.899 42.533 L119.243 39.5761 C120.25 37.3016 120.586 36.733 120.586 35.8232 C120.586 34.4585 119.579 33.8899 116.723 33.8899 C116.555 33.8899 116.387 33.8899 116.219 33.8899 L113.867 33.8899 L96.3966 33.8899 L96.3966 47.1957 L99.0844 47.1957 C99.2524 38.0977 101.1 36.2781 110.339 36.2781 L113.867 36.2781 C113.531 36.8467 113.195 37.1879 113.027 37.5291 C112.355 38.6663 110.843 41.1683 108.828 44.8075 L103.62 54.2466 C101.436 58.227 97.7405 65.8465 95.5567 70.5092 C94.7168 72.3288 94.5488 73.1249 94.5488 73.8072 C94.5488 75.3994 95.3887 75.8543 99.0844 75.8543 L119.411 75.8543 L119.411 60.3877 Z" style="fill:#ffffff; fill-rule:nonzero;"/>
   <path d="M16.6305 56.7485 C16.6305 57.5446 16.6305 57.9995 16.6305 58.3407 L16.9665 63.1171 C16.9665 63.572 16.9665 64.1406 16.9665 64.5955 C16.9665 70.7367 15.4546 73.2386 11.9269 73.2386 C7.55932 73.2386 5.03955 66.9837 3.35969 50.9486 C3.35969 50.6074 3.19172 50.1525 3.19172 49.6976 L0 49.6976 L0 76.4229 L3.69567 76.4229 L3.69567 73.3523 C6.55141 75.6268 9.07119 76.4229 12.5989 76.4229 C16.2945 76.4229 19.1503 75.2856 21.1661 72.8974 C24.3578 69.2582 24.8618 68.121 24.8618 48.2192 L24.8618 38.7801 C24.8618 38.2114 24.8618 37.7565 24.8618 37.3016 C24.8618 35.4821 24.6938 32.5252 24.6938 28.6586 C24.5258 24.337 24.5258 21.1528 24.3578 19.1057 L24.0219 13.4195 C23.8539 11.5999 23.8539 10.1215 23.8539 9.09796 C23.8539 5.1176 24.1898 4.20781 26.8776 2.27449 C27.5495 1.81959 27.7175 1.47842 27.7175 1.13725 C27.7175 0.227448 27.0456 0 24.3578 0 L11.423 0 L11.423 2.50194 L17.3025 2.50194 L17.3025 3.75291 C17.3025 11.0313 16.1266 23.8822 16.1266 36.0507 C16.1266 43.329 16.1266 47.082 16.6305 56.7485 Z M32.9009 33.3213 L32.9009 47.1957 L35.5887 47.1957 C37.7725 39.1212 40.6282 35.8232 44.8279 35.8232 C48.1876 35.8232 48.8595 36.9605 48.8595 42.3055 L48.8595 51.0623 C47.5156 50.6074 46.1717 50.38 44.1559 50.38 C35.5887 50.38 30.0452 55.6113 30.0452 63.6857 C30.0452 71.419 34.7488 76.1954 42.3081 76.1954 C45.1638 76.1954 47.3476 75.2856 48.8595 73.6935 C48.8595 73.8072 48.8595 73.9209 48.8595 74.0347 C48.8595 75.6268 49.3635 75.8543 52.8911 75.8543 L60.9544 75.8543 L60.9544 73.5798 L55.0749 73.5798 L55.2429 72.3288 C56.0829 65.5053 56.2509 60.274 56.2509 53.5643 C56.2509 35.2546 55.2429 33.3213 45.3318 33.3213 C41.8041 33.3213 39.1164 33.8899 36.0926 35.4821 L36.0926 33.3213 L32.9009 33.3213 Z M48.8595 53.5643 L48.8595 65.6191 C48.8595 71.3053 48.0196 72.7837 44.4919 72.7837 C40.6282 72.7837 38.6124 69.5994 38.6124 63.2308 C38.6124 56.5211 40.9642 52.8819 45.3318 52.8819 C46.5077 52.8819 47.5156 53.1094 48.8595 53.5643 Z M89.5103 60.3877 L86.8225 60.3877 C86.4865 70.7367 83.9668 73.5798 74.7276 73.5798 L71.3679 73.5798 L72.0398 72.3288 C75.5675 65.7328 78.2553 61.9799 80.6071 57.3172 L84.9747 48.6741 C86.4865 45.7173 87.4944 43.6702 87.9984 42.533 L89.3423 39.5761 C90.3502 37.3016 90.6862 36.733 90.6862 35.8232 C90.6862 34.4585 89.6783 33.8899 86.8225 33.8899 C86.6545 33.8899 86.4865 33.8899 86.3185 33.8899 L83.9668 33.8899 L66.4963 33.8899 L66.4963 47.1957 L69.1841 47.1957 C69.3521 38.0977 71.1999 36.2781 80.4391 36.2781 L83.9668 36.2781 C83.6308 36.8467 83.2948 37.1879 83.1268 37.5291 C82.4549 38.6663 80.943 41.1683 78.9272 44.8075 L73.7197 54.2466 C71.5359 58.227 67.8402 65.8465 65.6564 70.5092 C64.8165 72.3288 64.6485 73.1249 64.6485 73.8072 C64.6485 75.3994 65.4884 75.8543 69.1841 75.8543 L89.5103 75.8543 L89.5103 60.3877 Z M119.411 60.3877 L116.723 60.3877 C116.387 70.7367 113.867 73.5798 104.628 73.5798 L101.268 73.5798 L101.94 72.3288 C105.468 65.7328 108.156 61.9799 110.507 57.3172 L114.875 48.6741 C116.387 45.7173 117.395 43.6702 117.899 42.533 L119.243 39.5761 C120.25 37.3016 120.586 36.733 120.586 35.8232 C120.586 34.4585 119.579 33.8899 116.723 33.8899 C116.555 33.8899 116.387 33.8899 116.219 33.8899 L113.867 33.8899 L96.3966 33.8899 L96.3966 47.1957 L99.0844 47.1957 C99.2524 38.0977 101.1 36.2781 110.339 36.2781 L113.867 36.2781 C113.531 36.8467 113.195 37.1879 113.027 37.5291 C112.355 38.6663 110.843 41.1683 108.828 44.8075 L103.62 54.2466 C101.436 58.227 97.7405 65.8465 95.5567 70.5092 C94.7168 72.3288 94.5488 73.1249 94.5488 73.8072 C94.5488 75.3994 95.3887 75.8543 99.0844 75.8543 L119.411 75.8543 L119.411 60.3877 Z" style="fill:none; stroke:none;"/>
  </g>
  <g id="u287" clip-rule="nonzero" transform="translate(36.8184, 149.311) scale(1, 1)" clip-path="url(#Clip0)" style="fill:none; stroke:none">
   <path id="u288" transform="translate(15.1998, 0)" d="M10.4823 3.58789 C10.4823 4.22911 10.3452 4.79558 10.0719 5.28803 C9.79818 5.78049 9.44239 6.1949 9.0049 6.5309 C8.56704 6.86726 8.06689 7.12521 7.50408 7.30475 C6.94128 7.48466 6.37041 7.57443 5.79221 7.57443 C5.5262 7.57443 5.26055 7.55501 4.9949 7.51581 C4.72889 7.47697 4.46324 7.42604 4.1976 7.36338 C4.1976 8.36405 4.18953 9.36471 4.17415 10.365 C4.15839 11.3657 4.16608 12.3663 4.1976 13.3666 L6.49572 13.7653 L6.49572 13.906 C4.32254 13.8591 2.15742 13.8591 0 13.906 L0 13.7653 L2.22777 13.3901 C2.22777 12.2022 2.23547 11.0216 2.25122 9.84911 C2.26661 8.67659 2.27467 7.49639 2.27467 6.30812 C2.05556 6.12052 1.86796 5.90946 1.71187 5.67496 C1.55541 5.44046 1.41471 5.19057 1.28976 4.92455 L1.36011 4.8542 C1.51621 5.01066 1.66497 5.16712 1.80567 5.32321 C1.94637 5.47967 2.10246 5.62037 2.27467 5.74531 L2.27467 0.750409 L0.539356 0.281403 L0.586256 0.140702 C1.57117 0.250259 2.55974 0.277739 3.55271 0.222778 C4.54532 0.168182 5.53426 0.140702 6.51917 0.140702 C7.03508 0.140702 7.5312 0.219113 8.00826 0.375204 C8.48496 0.531662 8.90707 0.758469 9.27458 1.05526 C9.64172 1.35242 9.93485 1.7159 10.154 2.1457 C10.3727 2.57586 10.4823 3.06429 10.4823 3.61134 L10.4823 3.58789 Z M4.9011 0.86766 C4.6666 0.86766 4.4321 0.859965 4.1976 0.844209 L4.1976 6.80057 C4.40059 6.84747 4.60394 6.88668 4.8073 6.91783 C5.01029 6.94934 5.22135 6.96473 5.44046 6.96473 C6.03441 6.96473 6.54262 6.8123 6.96473 6.50745 C7.38683 6.20259 7.71513 5.82739 7.94964 5.38183 C8.18414 4.93628 8.31678 4.44785 8.34829 3.91619 C8.37944 3.3849 8.30139 2.89611 8.11379 2.45055 C7.92619 2.005 7.62903 1.62979 7.22268 1.32494 C6.81596 1.02009 6.28467 0.86766 5.62806 0.86766 C5.39356 0.86766 5.15099 0.86766 4.9011 0.86766 L4.9011 0.86766 Z M30.3892 11.7369 C30.3423 12.4953 30.3031 13.2575 30.2719 14.0233 C28.8961 14.0075 27.5202 13.9764 26.1447 13.9295 C24.7688 13.8826 23.3929 13.8591 22.0174 13.8591 C21.5484 13.8591 21.0714 13.8591 20.587 13.8591 C20.118 13.8591 19.649 13.8749 19.18 13.906 L19.18 13.7418 L21.4077 13.2728 C21.47 9.08331 21.47 4.88571 21.4077 0.680057 L19.4614 0.304854 L19.4614 0.140702 C21.1967 0.140702 22.9203 0.156457 24.6321 0.187602 C26.344 0.219113 28.0676 0.156457 29.8029 0 C29.7403 0.641218 29.7285 1.27804 29.7677 1.9112 C29.8066 2.54435 29.8418 3.18154 29.8733 3.82239 L29.7091 3.82239 C29.5369 2.94704 29.2478 2.29446 28.8415 1.8643 C28.4347 1.4345 27.9503 1.13734 27.3875 0.973186 C26.8247 0.809034 26.2033 0.73502 25.5232 0.750409 C24.8432 0.766164 24.1433 0.773858 23.4244 0.773858 L23.3541 6.33157 C23.8385 6.33157 24.3467 6.33157 24.8784 6.33157 C25.4254 6.33157 25.9219 6.26525 26.3675 6.13224 C26.813 5.9996 27.1725 5.75704 27.4462 5.40528 C27.7195 5.05353 27.8408 4.5182 27.8096 3.79894 L27.9738 3.79894 C27.9269 4.75271 27.9111 5.70244 27.9269 6.64815 C27.9423 7.59422 27.9503 8.54395 27.9503 9.49735 L27.7862 9.49735 C27.6766 8.70004 27.5085 8.11782 27.282 7.75031 C27.0552 7.38317 26.758 7.13694 26.3909 7.01163 C26.0234 6.88668 25.5855 6.83575 25.0777 6.8592 C24.5695 6.88265 23.9873 6.88668 23.3306 6.87092 L23.4479 13.2963 C24.3075 13.3121 25.1363 13.3278 25.9336 13.3432 C26.7309 13.359 27.4421 13.2611 28.0676 13.0501 C28.6927 12.839 29.2126 12.4601 29.627 11.9127 C30.0411 11.3657 30.3108 10.5449 30.4361 9.45045 L30.6002 9.45045 C30.5064 10.2166 30.4361 10.9787 30.3892 11.7369 Z M51.5154 4.8073 C51.437 3.9008 51.3278 3.18557 51.1871 2.6616 C51.0464 2.138 50.8196 1.73935 50.5071 1.46564 C50.1941 1.1923 49.7603 1.02009 49.2056 0.949735 C48.6505 0.879385 47.9275 0.852271 47.0364 0.86766 L47.0364 13.3666 L49.358 13.7653 L49.358 13.906 C47.1068 13.8591 44.8555 13.8591 42.6043 13.906 L42.6043 13.7653 L44.9024 13.3666 L44.9024 0.86766 C44.0736 0.899171 43.3665 0.953766 42.7802 1.03181 C42.1939 1.11022 41.7052 1.27804 41.3146 1.53599 C40.9236 1.79394 40.6228 2.17721 40.4117 2.68505 C40.2007 3.19327 40.0636 3.9008 40.0013 4.8073 L39.8372 4.78385 C39.8683 4.01805 39.9075 3.24017 39.9544 2.45055 C40.0013 1.6613 39.9856 0.883415 39.9075 0.117251 C41.8928 0.179907 43.8626 0.195664 45.817 0.164152 C47.7711 0.133007 49.7409 0.117251 51.7265 0.117251 C51.7265 0.91456 51.7184 1.69245 51.703 2.45055 C51.6873 3.20902 51.695 3.98654 51.7265 4.78385 L51.5154 4.8073 Z M63.8831 13.8826 C62.8121 13.8983 61.7374 13.906 60.6587 13.906 L60.6587 13.7653 L62.9099 13.3666 C62.9879 9.1456 62.9879 4.91686 62.9099 0.680057 L60.6587 0.257953 L60.6587 0.117251 C61.7374 0.148763 62.8121 0.160488 63.8831 0.152427 C64.9537 0.144733 66.0288 0.140702 67.1075 0.140702 L67.1075 0.257953 L64.8797 0.680057 C64.8482 2.80634 64.8328 4.92455 64.8328 7.03508 C64.8328 9.13021 64.8482 11.2407 64.8797 13.3666 L67.1075 13.7653 L67.1075 13.906 C66.0288 13.8749 64.9537 13.8672 63.8831 13.8826 Z M87.6711 4.8073 C87.5927 3.9008 87.4835 3.18557 87.3428 2.6616 C87.2021 2.138 86.9753 1.73935 86.6628 1.46564 C86.3498 1.1923 85.916 1.02009 85.3613 0.949735 C84.8062 0.879385 84.0832 0.852271 83.1921 0.86766 L83.1921 13.3666 L85.5137 13.7653 L85.5137 13.906 C83.2625 13.8591 81.0113 13.8591 78.76 13.906 L78.76 13.7653 L81.0581 13.3666 L81.0581 0.86766 C80.2293 0.899171 79.5222 0.953766 78.9359 1.03181 C78.3496 1.11022 77.8609 1.27804 77.4703 1.53599 C77.0793 1.79394 76.7785 2.17721 76.5674 2.68505 C76.3564 3.19327 76.2193 3.9008 76.157 4.8073 L75.9929 4.78385 C76.024 4.01805 76.0632 3.24017 76.1101 2.45055 C76.157 1.6613 76.1413 0.883415 76.0632 0.117251 C78.0485 0.179907 80.0183 0.195664 81.9727 0.164152 C83.9268 0.133007 85.8966 0.117251 87.8822 0.117251 C87.8822 0.91456 87.8741 1.69245 87.8587 2.45055 C87.843 3.20902 87.8507 3.98654 87.8822 4.78385 L87.6711 4.8073 Z" style="fill:#171615; fill-rule:nonzero;stroke:none;"/>
   <path id="u289" transform="translate(0, 5.57475)" d="M7.87276 0.810545 C7.76417 1.02772 7.61486 1.25424 7.42482 1.48923 C7.23479 1.72465 7.02652 1.9465 6.80043 2.15434 C6.57392 2.36261 6.33426 2.53441 6.08103 2.67014 C5.82737 2.80588 5.57413 2.87375 5.3209 2.87375 C4.99513 2.87375 4.69651 2.81055 4.42503 2.68372 C4.15356 2.55731 3.89099 2.408 3.63776 2.23579 C3.3841 2.06399 3.13553 1.90577 2.8912 1.76071 C2.64688 1.61606 2.39788 1.52104 2.14465 1.47566 C1.89099 1.43069 1.61951 1.46675 1.33022 1.58425 C1.04051 1.70217 0.723649 1.95074 0.380064 2.3308 L0 2.05933 C0.416119 1.37173 0.800849 0.874172 1.15377 0.566218 C1.50668 0.258688 1.85027 0.0775648 2.18537 0.023269 C2.52005 -0.0310253 2.84582 0.00969508 3.16268 0.145433 C3.47911 0.28117 3.79131 0.435146 4.09926 0.606939 C4.40679 0.779156 4.71899 0.946282 5.03585 1.10917 C5.35229 1.27205 5.68272 1.35349 6.02673 1.35349 C6.37032 1.35349 6.64646 1.27205 6.85473 1.10917 C7.06258 0.946282 7.27551 0.747343 7.49269 0.511923 L7.8999 0.810545 L7.87276 0.810545 Z" style="fill:#171615; fill-rule:nonzero;stroke:none;"/>
   <path id="u28a" transform="translate(111.475, 5.57475)" d="M7.87276 0.810545 C7.76417 1.02772 7.61486 1.25424 7.42482 1.48923 C7.23479 1.72465 7.02652 1.9465 6.80043 2.15434 C6.57392 2.36261 6.33426 2.53441 6.08103 2.67014 C5.82737 2.80588 5.57413 2.87375 5.3209 2.87375 C4.99513 2.87375 4.69651 2.81055 4.42503 2.68372 C4.15356 2.55731 3.89099 2.408 3.63776 2.23579 C3.3841 2.06399 3.13553 1.90577 2.8912 1.76071 C2.64688 1.61606 2.39788 1.52104 2.14465 1.47566 C1.89099 1.43069 1.61951 1.46675 1.33022 1.58425 C1.04051 1.70217 0.723649 1.95074 0.380064 2.3308 L0 2.05933 C0.416119 1.37173 0.800849 0.874172 1.15377 0.566218 C1.50668 0.258688 1.85027 0.0775648 2.18537 0.023269 C2.52005 -0.0310253 2.84582 0.00969508 3.16268 0.145433 C3.47911 0.28117 3.79131 0.435146 4.09926 0.606939 C4.40679 0.779156 4.71899 0.946282 5.03585 1.10917 C5.35229 1.27205 5.68272 1.35349 6.02673 1.35349 C6.37032 1.35349 6.64646 1.27205 6.85473 1.10917 C7.06258 0.946282 7.27551 0.747343 7.49269 0.511923 L7.8999 0.810545 L7.87276 0.810545 Z" style="fill:#171615; fill-rule:nonzero;stroke:none;"/>
  </g>
 </g>
</svg>
