<?xml version="1.0" encoding="UTF-8" standalone="no"?>
<svg
   width="135.25301pt"
   height="148.5318pt"
   viewBox="0 0 135.253 148.5318"
   version="1.1"
   id="svg7"
   sodipodi:docname="petit.svg"
   inkscape:version="1.3 (0e150ed6c4, 2023-07-21)"
   xmlns:inkscape="http://www.inkscape.org/namespaces/inkscape"
   xmlns:sodipodi="http://sodipodi.sourceforge.net/DTD/sodipodi-0.dtd"
   xmlns="http://www.w3.org/2000/svg"
   xmlns:svg="http://www.w3.org/2000/svg">
  <sodipodi:namedview
     id="namedview7"
     pagecolor="#ffffff"
     bordercolor="#000000"
     borderopacity="0.25"
     inkscape:showpageshadow="2"
     inkscape:pageopacity="0.0"
     inkscape:pagecheckerboard="0"
     inkscape:deskcolor="#d1d1d1"
     inkscape:document-units="pt"
     inkscape:zoom="2.0456439"
     inkscape:cx="90.191652"
     inkscape:cy="75.526343"
     inkscape:window-width="1366"
     inkscape:window-height="697"
     inkscape:window-x="-8"
     inkscape:window-y="329"
     inkscape:window-maximized="1"
     inkscape:current-layer="Fundo" />
  <defs
     id="defs3">
    <clipPath
       id="Clip0">
      <path
         d="M 0,0 H 135.253 V 183.683 H 0 Z"
         id="path1" />
    </clipPath>
    <clipPath
       id="Clip1">
      <path
         d="M 0,0 H 135.253 V 109.719 H 0 Z"
         id="path2" />
    </clipPath>
    <clipPath
       id="Clip2">
      <path
         d="M 0,0 H 135.136 V 15.863 H 0 Z"
         id="path3" />
    </clipPath>
  </defs>
  <g
     inkscape:label="Fundo"
     inkscape:groupmode="layer"
     id="Fundo"
     transform="translate(0,-35.150793)">
    <g
       clip-rule="evenodd"
       id="Agrupar47"
       style="fill:none;stroke:none"
       clip-path="url(#Clip0)">
      <g
         transform="rotate(-36.98,74.834198,2.7646433)"
         id="u2e6e">
        <path
           d="M 0.00200484,2.80491 H 6.78316 L 6.5958,4.20736 C 5.47135,12.2396 5.29337,26.7741 5.30285,40.0337 5.30868,48.1934 5.50434,58.3931 5.8848,63.6204 l 0.38138,6.5023 c 0.18973,1.9124 0.19092,3.5699 0.19174,4.7173 0.00319,4.4624 -0.37272,5.6098 -3.38502,7.7773 -0.75319,0.3824 -0.94128,0.7649 -0.94101,1.1474 7.3e-4,1.02 0.94274,1.275 3.76822,1.275 h 25.24099 1.8836 c 4.7092,0 5.4622,-0.6375 5.4593,-4.7174 L 38.4664,55.7156 h -4.1441 c -1.3022,22.8218 -2.9953,25.8817 -14.2972,25.8817 -0.5651,0 -1.1302,0 -1.6953,0 -1.1302,0 -2.6371,0 -4.8975,0 l 0.1873,-1.4025 C 13.8067,78.4099 14.1809,74.84 14.3655,69.6127 L 14.9214,56.7356 C 15.1077,53.8032 15.2929,49.3409 15.2887,43.4761 15.2828,35.1888 14.901,28.1766 14.5195,21.4193 l -0.3813,-6.3748 -4e-4,-0.51 -3e-4,-0.3825 c -0.0017,-2.4224 -0.1904,-2.9324 -0.1909,-3.5699 -10e-5,-0.1275 -10e-5,-0.1275 -2e-4,-0.2549 0,0 -10e-5,-0.1275 -2e-4,-0.255 -2e-4,-0.38252 -6e-4,-0.89251 -10e-4,-1.52998 -10e-5,-0.1275 -2e-4,-0.255 -3e-4,-0.38249 0.3747,-2.80491 0.7508,-3.69738 3.3865,-5.60981 0.7531,-0.50999 0.9412,-0.89248 0.941,-1.27496 C 18.2716,0.25499 17.518,0 14.6925,0 L 0,1.09553e-8 Z M 75.2039,67.7002 h -4.1441 c 8e-4,1.1475 0.0012,1.6575 0.0017,2.295 0.0052,7.2672 -3.0055,11.7296 -8.2797,11.7296 -6.4045,0 -8.6686,-5.2273 -8.6791,-20.0169 -3e-4,-0.3824 -7e-4,-0.8924 -0.0012,-1.6574 h 13.7506 c 6.9696,0 7.9109,-0.765 7.9075,-5.4823 -0.0078,-10.8372 -5.0982,-17.2119 -13.763,-17.2119 -11.3019,0 -17.1351,8.6697 -17.1233,25.1166 0.0112,15.682 5.2908,23.2043 16.4044,23.2043 8.8532,0 14.1235,-5.4824 14.1165,-15.172 -6e-4,-0.8925 -0.1893,-1.4025 -0.1903,-2.805 z M 54.0996,57.5006 C 54.28,46.281 56.7244,40.1612 61.4335,40.1612 c 3.9557,0 5.8422,3.9523 5.8484,12.622 0.0027,3.8249 -0.9385,4.7174 -4.5174,4.7174 h -2.0721 z"
           style="fill:#ab0d25;fill-rule:nonzero"
           id="path4" />
        <path
           d="M 0.00200484,2.80491 H 6.78316 L 6.5958,4.20736 C 5.47135,12.2396 5.29337,26.7741 5.30285,40.0337 5.30868,48.1934 5.50434,58.3931 5.8848,63.6204 l 0.38138,6.5023 c 0.18973,1.9124 0.19092,3.5699 0.19174,4.7173 0.00319,4.4624 -0.37272,5.6098 -3.38502,7.7773 -0.75319,0.3824 -0.94128,0.7649 -0.94101,1.1474 7.3e-4,1.02 0.94274,1.275 3.76822,1.275 h 25.24099 1.8836 c 4.7092,0 5.4622,-0.6375 5.4593,-4.7174 L 38.4664,55.7156 h -4.1441 c -1.3022,22.8218 -2.9953,25.8817 -14.2972,25.8817 -0.5651,0 -1.1302,0 -1.6953,0 -1.1302,0 -2.6371,0 -4.8975,0 l 0.1873,-1.4025 C 13.8067,78.4099 14.1809,74.84 14.3655,69.6127 L 14.9214,56.7356 C 15.1077,53.8032 15.2929,49.3409 15.2887,43.4761 15.2828,35.1888 14.901,28.1766 14.5195,21.4193 l -0.3813,-6.3748 -4e-4,-0.51 -3e-4,-0.3825 c -0.0017,-2.4224 -0.1904,-2.9324 -0.1909,-3.5699 -10e-5,-0.1275 -10e-5,-0.1275 -2e-4,-0.2549 0,0 -10e-5,-0.1275 -2e-4,-0.255 -2e-4,-0.38252 -6e-4,-0.89251 -10e-4,-1.52998 -10e-5,-0.1275 -2e-4,-0.255 -3e-4,-0.38249 0.3747,-2.80491 0.7508,-3.69738 3.3865,-5.60981 0.7531,-0.50999 0.9412,-0.89248 0.941,-1.27496 C 18.2716,0.25499 17.518,0 14.6925,0 L 0,1.09553e-8 Z M 75.2039,67.7002 h -4.1441 c 8e-4,1.1475 0.0012,1.6575 0.0017,2.295 0.0052,7.2672 -3.0055,11.7296 -8.2797,11.7296 -6.4045,0 -8.6686,-5.2273 -8.6791,-20.0169 -3e-4,-0.3824 -7e-4,-0.8924 -0.0012,-1.6574 h 13.7506 c 6.9696,0 7.9109,-0.765 7.9075,-5.4823 -0.0078,-10.8372 -5.0982,-17.2119 -13.763,-17.2119 -11.3019,0 -17.1351,8.6697 -17.1233,25.1166 0.0112,15.682 5.2908,23.2043 16.4044,23.2043 8.8532,0 14.1235,-5.4824 14.1165,-15.172 -6e-4,-0.8925 -0.1893,-1.4025 -0.1903,-2.805 z M 54.0996,57.5006 C 54.28,46.281 56.7244,40.1612 61.4335,40.1612 c 3.9557,0 5.8422,3.9523 5.8484,12.622 0.0027,3.8249 -0.9385,4.7174 -4.5174,4.7174 h -2.0721 z"
           style="fill:none;stroke:none"
           id="path5" />
      </g>
      <g
         clip-rule="evenodd"
         transform="translate(0,73.9639)"
         id="Agrupar46"
         style="fill:none;stroke:none"
         clip-path="url(#Clip1)">
        <g
           id="u2e86">
          <path
             d="m 18.6532,63.6033 c 0,0.8922 0,1.402 0,1.7844 l 0.3768,5.3534 c 0,0.5098 0,1.1472 0,1.657 0,6.8829 -1.6957,9.6871 -5.6525,9.6871 -4.89877,0 -7.72502,-7.0104 -9.60918,-24.9825 0,-0.3824 -0.18841,-0.8922 -0.18841,-1.402 H 0 v 29.9534 h 4.14516 v -3.4415 c 3.20306,2.5493 6.02934,3.4415 9.98604,3.4415 4.1452,0 7.3482,-1.2746 9.6092,-3.9513 3.5799,-4.0788 4.1452,-5.3534 4.1452,-27.6591 V 43.4644 c 0,-0.6374 0,-1.1472 0,-1.657 0,-2.0394 -0.1884,-5.3534 -0.1884,-9.6871 -0.1884,-4.8436 -0.1884,-8.4125 -0.3769,-10.7068 l -0.3768,-6.373 c -0.1884,-2.0394 -0.1884,-3.6964 -0.1884,-4.8436 0,-4.46114 0.3768,-5.48083 3.3915,-7.64767 C 30.9002,2.03938 31.0887,1.657 31.0887,1.27461 31.0887,0.254922 30.335,0 27.3203,0 h -14.508 v 2.80415 h 6.5946 v 1.40208 c 0,8.15757 -1.3189,22.56067 -1.3189,36.19907 0,8.1575 0,12.3637 0.5652,23.198 z M 36.9025,37.3462 v 15.5503 h 3.0147 c 2.4494,-9.0498 5.6524,-12.7461 10.3628,-12.7461 3.7684,0 4.522,1.2746 4.522,7.2653 v 9.8145 c -1.5073,-0.5099 -3.0146,-0.7648 -5.2756,-0.7648 -9.6092,0 -15.827,5.8632 -15.827,14.913 0,8.6674 5.2757,14.0208 13.7544,14.0208 3.2031,0 5.6525,-1.0197 7.3482,-2.8042 0,0.1275 0,0.2549 0,0.3824 0,1.7845 0.5653,2.0394 4.522,2.0394 h 9.044 v -2.5492 h -6.5946 l 0.1884,-1.4021 c 0.9421,-7.6477 1.1306,-13.5109 1.1306,-21.0312 0,-20.5213 -1.1306,-22.6881 -12.2471,-22.6881 -3.9568,0 -6.9714,0.6373 -10.3629,2.4218 V 37.3462 Z M 54.802,60.0343 v 13.511 c 0,6.373 -0.942,8.03 -4.8988,8.03 -4.3336,0 -6.5946,-3.5689 -6.5946,-10.7067 0,-7.5203 2.6379,-11.599 7.5367,-11.599 1.3189,0 2.4494,0.2549 3.9567,0.7647 z m 45.595,7.6477 H 97.3823 C 97.0054,79.281 94.1792,82.4676 83.8163,82.4676 H 80.048 l 0.7537,-1.4021 c 3.9567,-7.3928 6.9713,-11.599 9.6092,-16.8249 l 4.8988,-9.6871 c 1.6957,-3.314 2.8262,-5.6083 3.3915,-6.8829 l 1.5078,-3.314 c 1.13,-2.5492 1.507,-3.1866 1.507,-4.2062 0,-1.5296 -1.131,-2.1669 -4.3337,-2.1669 -0.1884,0 -0.3769,0 -0.5653,0 H 94.1792 74.5839 v 14.913 h 3.0147 C 77.787,42.6996 79.8596,40.6602 90.2225,40.6602 h 3.9567 c -0.3768,0.6373 -0.7537,1.0197 -0.9421,1.4021 -0.7537,1.2746 -2.4494,4.0787 -4.7104,8.1575 l -5.8409,10.5793 c -2.4494,4.4612 -6.5946,13.0011 -9.044,18.227 -0.942,2.0394 -1.1305,2.9316 -1.1305,3.6964 0,1.7844 0.9421,2.2943 5.0873,2.2943 h 22.7984 z m 33.537,0 h -3.015 c -0.377,11.599 -3.203,14.7856 -13.566,14.7856 h -3.768 l 0.754,-1.4021 c 3.956,-7.3928 6.971,-11.599 9.609,-16.8249 l 4.899,-9.6871 c 1.695,-3.314 2.826,-5.6083 3.391,-6.8829 l 1.507,-3.314 c 1.131,-2.5492 1.508,-3.1866 1.508,-4.2062 0,-1.5296 -1.131,-2.1669 -4.334,-2.1669 -0.188,0 -0.377,0 -0.565,0 h -2.638 -19.595 v 14.913 h 3.014 c 0.189,-10.1969 2.261,-12.2363 12.624,-12.2363 h 3.957 c -0.377,0.6373 -0.754,1.0197 -0.942,1.4021 -0.754,1.2746 -2.449,4.0787 -4.71,8.1575 l -5.841,10.5793 c -2.45,4.4612 -6.595,13.0011 -9.044,18.227 -0.942,2.0394 -1.131,2.9316 -1.131,3.6964 0,1.7844 0.942,2.2943 5.087,2.2943 h 22.799 z"
             style="fill:#ab0d25;fill-rule:nonzero"
             id="path6" />
          <path
             d="m 18.6532,63.6033 c 0,0.8922 0,1.402 0,1.7844 l 0.3768,5.3534 c 0,0.5098 0,1.1472 0,1.657 0,6.8829 -1.6957,9.6871 -5.6525,9.6871 -4.89877,0 -7.72502,-7.0104 -9.60918,-24.9825 0,-0.3824 -0.18841,-0.8922 -0.18841,-1.402 H 0 v 29.9534 h 4.14516 v -3.4415 c 3.20306,2.5493 6.02934,3.4415 9.98604,3.4415 4.1452,0 7.3482,-1.2746 9.6092,-3.9513 3.5799,-4.0788 4.1452,-5.3534 4.1452,-27.6591 V 43.4644 c 0,-0.6374 0,-1.1472 0,-1.657 0,-2.0394 -0.1884,-5.3534 -0.1884,-9.6871 -0.1884,-4.8436 -0.1884,-8.4125 -0.3769,-10.7068 l -0.3768,-6.373 c -0.1884,-2.0394 -0.1884,-3.6964 -0.1884,-4.8436 0,-4.46114 0.3768,-5.48083 3.3915,-7.64767 C 30.9002,2.03938 31.0887,1.657 31.0887,1.27461 31.0887,0.254922 30.335,0 27.3203,0 h -14.508 v 2.80415 h 6.5946 v 1.40208 c 0,8.15757 -1.3189,22.56067 -1.3189,36.19907 0,8.1575 0,12.3637 0.5652,23.198 z M 36.9025,37.3462 v 15.5503 h 3.0147 c 2.4494,-9.0498 5.6524,-12.7461 10.3628,-12.7461 3.7684,0 4.522,1.2746 4.522,7.2653 v 9.8145 c -1.5073,-0.5099 -3.0146,-0.7648 -5.2756,-0.7648 -9.6092,0 -15.827,5.8632 -15.827,14.913 0,8.6674 5.2757,14.0208 13.7544,14.0208 3.2031,0 5.6525,-1.0197 7.3482,-2.8042 0,0.1275 0,0.2549 0,0.3824 0,1.7845 0.5653,2.0394 4.522,2.0394 h 9.044 v -2.5492 h -6.5946 l 0.1884,-1.4021 c 0.9421,-7.6477 1.1306,-13.5109 1.1306,-21.0312 0,-20.5213 -1.1306,-22.6881 -12.2471,-22.6881 -3.9568,0 -6.9714,0.6373 -10.3629,2.4218 V 37.3462 Z M 54.802,60.0343 v 13.511 c 0,6.373 -0.942,8.03 -4.8988,8.03 -4.3336,0 -6.5946,-3.5689 -6.5946,-10.7067 0,-7.5203 2.6379,-11.599 7.5367,-11.599 1.3189,0 2.4494,0.2549 3.9567,0.7647 z m 45.595,7.6477 H 97.3823 C 97.0054,79.281 94.1792,82.4676 83.8163,82.4676 H 80.048 l 0.7537,-1.4021 c 3.9567,-7.3928 6.9713,-11.599 9.6092,-16.8249 l 4.8988,-9.6871 c 1.6957,-3.314 2.8262,-5.6083 3.3915,-6.8829 l 1.5078,-3.314 c 1.13,-2.5492 1.507,-3.1866 1.507,-4.2062 0,-1.5296 -1.131,-2.1669 -4.3337,-2.1669 -0.1884,0 -0.3769,0 -0.5653,0 H 94.1792 74.5839 v 14.913 h 3.0147 C 77.787,42.6996 79.8596,40.6602 90.2225,40.6602 h 3.9567 c -0.3768,0.6373 -0.7537,1.0197 -0.9421,1.4021 -0.7537,1.2746 -2.4494,4.0787 -4.7104,8.1575 l -5.8409,10.5793 c -2.4494,4.4612 -6.5946,13.0011 -9.044,18.227 -0.942,2.0394 -1.1305,2.9316 -1.1305,3.6964 0,1.7844 0.9421,2.2943 5.0873,2.2943 h 22.7984 z m 33.537,0 h -3.015 c -0.377,11.599 -3.203,14.7856 -13.566,14.7856 h -3.768 l 0.754,-1.4021 c 3.956,-7.3928 6.971,-11.599 9.609,-16.8249 l 4.899,-9.6871 c 1.695,-3.314 2.826,-5.6083 3.391,-6.8829 l 1.507,-3.314 c 1.131,-2.5492 1.508,-3.1866 1.508,-4.2062 0,-1.5296 -1.131,-2.1669 -4.334,-2.1669 -0.188,0 -0.377,0 -0.565,0 h -2.638 -19.595 v 14.913 h 3.014 c 0.189,-10.1969 2.261,-12.2363 12.624,-12.2363 h 3.957 c -0.377,0.6373 -0.754,1.0197 -0.942,1.4021 -0.754,1.2746 -2.449,4.0787 -4.71,8.1575 l -5.841,10.5793 c -2.45,4.4612 -6.595,13.0011 -9.044,18.227 -0.942,2.0394 -1.131,2.9316 -1.131,3.6964 0,1.7844 0.942,2.2943 5.087,2.2943 h 22.799 z"
             style="fill:none;stroke:none"
             id="path7" />
        </g>
        <g
           clip-rule="nonzero"
           transform="translate(4.87184e-7,93.8557)"
           id="u2e9d"
           style="fill:none;stroke:none"
           clip-path="url(#Clip2)">
          <path
             d="m 11.8663,4.05859 c 0,0.72535 -0.1551,1.36613 -0.4646,1.9232 C 11.0919,6.53885 10.6891,7.00762 10.1939,7.3877 9.69818,7.7682 9.13199,8.05999 8.49488,8.26309 7.85776,8.4666 7.21152,8.56814 6.55698,8.56814 6.25585,8.56814 5.95513,8.54618 5.6544,8.50183 5.35327,8.45789 5.05254,8.40028 4.75182,8.3294 c 0,1.13195 -0.00912,2.2639 -0.02654,3.3954 -0.01784,1.132 -0.00913,2.2639 0.02654,3.3955 l 2.60156,0.4509 v 0.1592 C 4.89327,15.6773 2.44228,15.6773 0,15.7304 v -0.1592 l 2.52192,-0.4244 c 0,-1.3438 0.00871,-2.6792 0.02654,-4.0056 C 2.56588,9.8149 2.57501,8.47986 2.57501,7.1357 2.32697,6.92348 2.11459,6.68474 1.93789,6.41948 1.76078,6.15421 1.6015,5.87153 1.46006,5.57062 L 1.5397,5.49104 C 1.7164,5.66802 1.8848,5.84501 2.04408,6.02157 2.20336,6.19856 2.38006,6.35772 2.57501,6.49906 V 0.848857 L 0.610569,0.318321 0.663662,0.159161 C 1.77862,0.283091 2.89772,0.314177 4.02179,0.252005 5.14546,0.190246 6.26497,0.159161 7.37993,0.159161 c 0.58402,0 1.14564,0.088698 1.6857,0.265267 0.53964,0.176984 1.01747,0.433547 1.43347,0.769272 0.4157,0.33615 0.7475,0.74731 0.9955,1.2335 0.2477,0.4866 0.3717,1.0391 0.3717,1.65792 z M 5.54822,0.981491 c -0.26547,0 -0.53093,-0.008705 -0.7964,-0.026527 V 7.69276 c 0.2298,0.05305 0.46,0.0974 0.69021,0.13263 0.22979,0.03565 0.46871,0.05306 0.71676,0.05306 0.67237,0 1.24768,-0.17243 1.72552,-0.51727 C 8.36215,7.01633 8.7338,6.5919 8.99926,6.08789 9.26473,5.58388 9.41488,5.03138 9.45055,4.42997 9.48581,3.82897 9.39746,3.27606 9.18509,2.77205 8.97271,2.26804 8.63632,1.84361 8.17632,1.49876 7.7159,1.15391 7.11446,0.981491 6.37116,0.981491 c -0.26547,0 -0.54006,0 -0.82294,0 z M 34.4016,13.2766 c -0.0531,0.858 -0.0975,1.7201 -0.1327,2.5864 -1.5576,-0.0178 -3.1151,-0.0531 -4.6722,-0.1061 -1.5576,-0.0531 -3.1151,-0.0796 -4.6722,-0.0796 -0.5309,0 -1.071,0 -1.6193,0 -0.531,0 -1.0619,0.0178 -1.5928,0.0531 v -0.1857 l 2.5219,-0.5306 c 0.0705,-4.7391 0.0705,-9.48742 0,-14.244824 L 22.0309,0.344848 V 0.159161 c 1.9645,0 3.9156,0.017822 5.8535,0.053054 C 29.8223,0.247859 31.7735,0.176983 33.7379,0 33.667,0.725341 33.6537,1.44571 33.6981,2.16193 c 0.044,0.71622 0.0838,1.43701 0.1195,2.16193 H 33.6317 C 33.4368,3.33367 33.1095,2.59548 32.6495,2.10888 32.1891,1.62269 31.6408,1.28655 31.0036,1.10086 30.3665,0.915173 29.663,0.831449 28.8932,0.848857 28.1233,0.866679 27.3311,0.875383 26.5173,0.875383 L 26.4376,7.16223 c 0.5484,0 1.1237,0 1.7256,0 0.6192,0 1.1813,-0.07503 1.6857,-0.22548 0.5043,-0.15004 0.9113,-0.42443 1.2211,-0.82233 0.3094,-0.3979 0.4467,-1.00346 0.4115,-1.81708 h 0.1858 c -0.0531,1.07889 -0.0709,2.15322 -0.0531,3.223 0.0174,1.07019 0.0266,2.14452 0.0266,3.22296 H 31.4549 C 31.3309,9.84143 31.1405,9.18282 30.8842,8.76709 30.6274,8.35178 30.291,8.07325 29.8754,7.9315 29.4594,7.79016 28.9637,7.73255 28.3888,7.75908 27.8135,7.7856 27.1544,7.79016 26.4111,7.77234 l 0.1327,7.26836 c 0.9731,0.0178 1.9114,0.0356 2.814,0.053 0.9025,0.0178 1.7076,-0.0928 2.4157,-0.3316 0.7076,-0.2387 1.2962,-0.6673 1.7653,-1.2865 0.4687,-0.6188 0.774,-1.5473 0.9159,-2.7853 h 0.1858 c -0.1062,0.8667 -0.1858,1.7288 -0.2389,2.5863 z M 58.3172,5.43799 C 58.2285,4.41256 58.1049,3.60349 57.9456,3.01079 57.7863,2.4185 57.5295,1.96754 57.1757,1.65792 56.8215,1.34872 56.3304,1.15391 55.7024,1.07433 55.074,0.994754 54.2556,0.964083 53.2468,0.981491 V 15.1203 l 2.6281,0.4509 v 0.1592 c -2.5484,-0.0531 -5.0969,-0.0531 -7.6453,0 v -0.1592 l 2.6015,-0.4509 V 0.981491 C 49.8929,1.01714 49.0923,1.07889 48.4287,1.16718 47.765,1.25588 47.2117,1.44571 46.7695,1.7375 46.3269,2.0293 45.9864,2.46284 45.7475,3.03731 45.5085,3.6122 45.3534,4.41256 45.2829,5.43799 L 45.0971,5.41146 c 0.0352,-0.86627 0.0796,-1.74621 0.1327,-2.63941 0.0531,-0.89279 0.0353,-1.772737 -0.0531,-2.639416 2.2473,0.070876 4.4772,0.088699 6.6897,0.053054 2.2121,-0.035231 4.442,-0.053054 6.6897,-0.053054 0,0.901906 -0.0091,1.781856 -0.0265,2.639416 -0.0178,0.85797 -0.0091,1.7375 0.0265,2.63941 z M 72.3178,15.7038 c -1.2124,0.0179 -2.429,0.0266 -3.6501,0.0266 v -0.1592 l 2.5485,-0.4509 c 0.0883,-4.7749 0.0883,-9.55838 0,-14.351024 L 68.6677,0.291794 v -0.15916 c 1.2211,0.035645 2.4377,0.048909 3.6501,0.03979 1.212,-0.008703 2.429,-0.013263 3.6502,-0.013263 V 0.291794 L 73.4461,0.769276 C 73.4104,3.17451 73.393,5.57062 73.393,7.95803 c 0,2.36997 0.0174,4.75737 0.0531,7.16227 l 2.5219,0.4509 v 0.1592 c -1.2212,-0.0353 -2.4382,-0.044 -3.6502,-0.0266 z M 99.2467,5.43799 C 99.158,4.41256 99.0343,3.60349 98.8751,3.01079 98.7158,2.4185 98.459,1.96754 98.1052,1.65792 97.751,1.34872 97.2599,1.15391 96.6319,1.07433 96.0035,0.994754 95.1851,0.964083 94.1763,0.981491 V 15.1203 l 2.6281,0.4509 v 0.1592 c -2.5484,-0.0531 -5.0969,-0.0531 -7.6453,0 v -0.1592 l 2.6015,-0.4509 V 0.981491 C 90.8224,1.01714 90.0218,1.07889 89.3582,1.16718 88.6945,1.25588 88.1412,1.44571 87.699,1.7375 87.2564,2.0293 86.9159,2.46284 86.677,3.03731 86.438,3.6122 86.2829,4.41256 86.2124,5.43799 L 86.0266,5.41146 c 0.0352,-0.86627 0.0796,-1.74621 0.1327,-2.63941 0.0531,-0.89279 0.0352,-1.772737 -0.0531,-2.639416 2.2473,0.070876 4.4772,0.088699 6.6897,0.053054 2.2121,-0.035231 4.442,-0.053054 6.6897,-0.053054 0,0.901906 -0.0091,1.781856 -0.0265,2.639416 -0.0178,0.85797 -0.0091,1.7375 0.0265,2.63941 z"
             transform="translate(17.2067)"
             style="fill:#171615;fill-rule:nonzero;stroke:none"
             id="u2e9e" />
          <path
             d="M 8.91223,0.916887 C 8.7893,1.16256 8.62028,1.41879 8.40516,1.68462 8.19003,1.95092 7.95426,2.20187 7.69832,2.43699 7.4419,2.67258 7.1706,2.86692 6.88393,3.02046 6.59678,3.17401 6.31011,3.25078 6.02344,3.25078 5.65466,3.25078 5.31661,3.17929 5.00929,3.03582 4.70197,2.89283 4.40474,2.72393 4.11806,2.52912 3.83091,2.33478 3.54953,2.15581 3.27294,1.99171 2.99635,1.82808 2.71448,1.7206 2.42781,1.66926 2.14066,1.6184 1.83335,1.65918 1.50586,1.7921 1.17789,1.92549 0.819195,2.20667 0.430246,2.6366 L 0,2.32951 C 0.471061,1.5517 0.906589,0.988861 1.3061,0.640505 1.70562,0.292627 2.09457,0.0877412 2.47391,0.0263219 2.85278,-0.0350958 3.22156,0.0109671 3.58026,0.164514 3.93848,0.318059 4.29189,0.492237 4.64051,0.686568 4.98864,0.881379 5.34206,1.07043 5.70075,1.25469 c 0.35822,0.18425 0.73229,0.27638 1.12172,0.27638 0.38895,0 0.70155,-0.09213 0.93732,-0.27638 0.23529,-0.18426 0.47634,-0.409297 0.7222,-0.675604 l 0.46097,0.337801 z"
             transform="translate(0,6.3061)"
             style="fill:#171615;fill-rule:nonzero;stroke:none"
             id="u2e9f" />
          <path
             d="M 8.91223,0.916887 C 8.7893,1.16256 8.62028,1.41879 8.40516,1.68462 8.19003,1.95092 7.95426,2.20187 7.69832,2.43699 7.4419,2.67258 7.1706,2.86692 6.88393,3.02046 6.59678,3.17401 6.31011,3.25078 6.02344,3.25078 5.65466,3.25078 5.31661,3.17929 5.00929,3.03582 4.70197,2.89283 4.40474,2.72393 4.11806,2.52912 3.83091,2.33478 3.54953,2.15581 3.27294,1.99171 2.99635,1.82808 2.71448,1.7206 2.42781,1.66926 2.14066,1.6184 1.83335,1.65918 1.50586,1.7921 1.17789,1.92549 0.819195,2.20667 0.430246,2.6366 L 0,2.32951 C 0.471061,1.5517 0.906589,0.988861 1.3061,0.640505 1.70562,0.292627 2.09457,0.0877412 2.47391,0.0263219 2.85278,-0.0350958 3.22156,0.0109671 3.58026,0.164514 3.93848,0.318059 4.29189,0.492237 4.64051,0.686568 4.98864,0.881379 5.34206,1.07043 5.70075,1.25469 c 0.35822,0.18425 0.73229,0.27638 1.12172,0.27638 0.38895,0 0.70155,-0.09213 0.93732,-0.27638 0.23529,-0.18426 0.47634,-0.409297 0.7222,-0.675604 l 0.46097,0.337801 z"
             transform="translate(126.193,6.3061)"
             style="fill:#171615;fill-rule:nonzero;stroke:none"
             id="u2ea0" />
        </g>
      </g>
    </g>
  </g>
</svg>
